<svg width="287" height="169" viewBox="0 0 287 169" fill="none" xmlns="http://www.w3.org/2000/svg">
<rect width="286.664" height="168.3" rx="18.4945" fill="#03446F"/>
<path d="M92.5237 106.213H90.3284C90.1986 105.582 89.9714 105.027 89.6468 104.549C89.3281 104.071 88.9386 103.67 88.4783 103.345C88.0239 103.015 87.5193 102.767 86.9646 102.602C86.4099 102.436 85.8316 102.354 85.2296 102.354C84.132 102.354 83.1376 102.631 82.2465 103.186C81.3613 103.741 80.6561 104.558 80.1308 105.638C79.6115 106.718 79.3519 108.043 79.3519 109.613C79.3519 111.182 79.6115 112.507 80.1308 113.587C80.6561 114.667 81.3613 115.484 82.2465 116.039C83.1376 116.594 84.132 116.871 85.2296 116.871C85.8316 116.871 86.4099 116.789 86.9646 116.623C87.5193 116.458 88.0239 116.213 88.4783 115.889C88.9386 115.558 89.3281 115.154 89.6468 114.676C89.9714 114.192 90.1986 113.637 90.3284 113.012H92.5237C92.3585 113.938 92.0575 114.767 91.6208 115.499C91.1841 116.231 90.6412 116.853 89.992 117.367C89.3429 117.874 88.614 118.261 87.8056 118.527C87.003 118.792 86.1443 118.925 85.2296 118.925C83.6835 118.925 82.3084 118.547 81.1046 117.792C79.9007 117.036 78.9535 115.962 78.2631 114.57C77.5726 113.177 77.2274 111.525 77.2274 109.613C77.2274 107.7 77.5726 106.048 78.2631 104.655C78.9535 103.263 79.9007 102.189 81.1046 101.433C82.3084 100.678 83.6835 100.3 85.2296 100.3C86.1443 100.3 87.003 100.433 87.8056 100.699C88.614 100.964 89.3429 101.354 89.992 101.867C90.6412 102.375 91.1841 102.994 91.6208 103.726C92.0575 104.452 92.3585 105.281 92.5237 106.213ZM101.312 118.96C100.084 118.96 99.0071 118.668 98.0806 118.084C97.1599 117.5 96.44 116.682 95.9207 115.632C95.4072 114.581 95.1505 113.354 95.1505 111.949C95.1505 110.533 95.4072 109.297 95.9207 108.24C96.44 107.184 97.1599 106.364 98.0806 105.78C99.0071 105.195 100.084 104.903 101.312 104.903C102.539 104.903 103.613 105.195 104.534 105.78C105.46 106.364 106.18 107.184 106.694 108.24C107.213 109.297 107.473 110.533 107.473 111.949C107.473 113.354 107.213 114.581 106.694 115.632C106.18 116.682 105.46 117.5 104.534 118.084C103.613 118.668 102.539 118.96 101.312 118.96ZM101.312 117.084C102.244 117.084 103.011 116.845 103.613 116.367C104.215 115.889 104.661 115.26 104.95 114.481C105.239 113.702 105.383 112.858 105.383 111.949C105.383 111.041 105.239 110.194 104.95 109.409C104.661 108.624 104.215 107.99 103.613 107.506C103.011 107.022 102.244 106.78 101.312 106.78C100.379 106.78 99.612 107.022 99.01 107.506C98.4081 107.99 97.9625 108.624 97.6734 109.409C97.3842 110.194 97.2396 111.041 97.2396 111.949C97.2396 112.858 97.3842 113.702 97.6734 114.481C97.9625 115.26 98.4081 115.889 99.01 116.367C99.612 116.845 100.379 117.084 101.312 117.084ZM110.662 118.677V105.08H112.68V107.205H112.857C113.14 106.479 113.597 105.915 114.229 105.514C114.86 105.107 115.619 104.903 116.504 104.903C117.401 104.903 118.147 105.107 118.743 105.514C119.345 105.915 119.815 106.479 120.151 107.205H120.293C120.641 106.503 121.163 105.945 121.859 105.532C122.556 105.113 123.391 104.903 124.364 104.903C125.58 104.903 126.575 105.284 127.348 106.045C128.121 106.801 128.507 107.978 128.507 109.577V118.677H126.418V109.577C126.418 108.574 126.144 107.857 125.595 107.426C125.046 106.995 124.4 106.78 123.656 106.78C122.7 106.78 121.96 107.069 121.434 107.647C120.909 108.22 120.647 108.946 120.647 109.825V118.677H118.522V109.365C118.522 108.592 118.271 107.969 117.77 107.497C117.268 107.019 116.622 106.78 115.831 106.78C115.288 106.78 114.781 106.924 114.309 107.214C113.842 107.503 113.465 107.904 113.175 108.417C112.892 108.925 112.751 109.512 112.751 110.179V118.677H110.662ZM132.327 118.677V105.08H134.345V107.205H134.522C134.805 106.479 135.263 105.915 135.894 105.514C136.526 105.107 137.284 104.903 138.169 104.903C139.066 104.903 139.813 105.107 140.409 105.514C141.011 105.915 141.48 106.479 141.816 107.205H141.958C142.306 106.503 142.828 105.945 143.525 105.532C144.221 105.113 145.056 104.903 146.03 104.903C147.245 104.903 148.24 105.284 149.013 106.045C149.786 106.801 150.173 107.978 150.173 109.577V118.677H148.083V109.577C148.083 108.574 147.809 107.857 147.26 107.426C146.711 106.995 146.065 106.78 145.322 106.78C144.366 106.78 143.625 107.069 143.1 107.647C142.575 108.22 142.312 108.946 142.312 109.825V118.677H140.187V109.365C140.187 108.592 139.937 107.969 139.435 107.497C138.933 107.019 138.287 106.78 137.496 106.78C136.954 106.78 136.446 106.924 135.974 107.214C135.508 107.503 135.13 107.904 134.841 108.417C134.558 108.925 134.416 109.512 134.416 110.179V118.677H132.327ZM162.561 113.118V105.08H164.65V118.677H162.561V116.375H162.419C162.101 117.066 161.605 117.653 160.932 118.137C160.259 118.615 159.41 118.854 158.383 118.854C157.533 118.854 156.778 118.668 156.117 118.296C155.456 117.919 154.936 117.352 154.559 116.597C154.181 115.835 153.992 114.877 153.992 113.72V105.08H156.081V113.578C156.081 114.57 156.359 115.36 156.913 115.951C157.474 116.541 158.188 116.836 159.056 116.836C159.575 116.836 160.103 116.703 160.64 116.437C161.183 116.172 161.637 115.765 162.003 115.216C162.375 114.667 162.561 113.968 162.561 113.118ZM170.565 110.498V118.677H168.476V105.08H170.495V107.205H170.672C170.99 106.514 171.474 105.96 172.123 105.541C172.773 105.116 173.611 104.903 174.637 104.903C175.558 104.903 176.363 105.092 177.054 105.47C177.744 105.842 178.281 106.408 178.665 107.169C179.049 107.925 179.24 108.881 179.24 110.037V118.677H177.151V110.179C177.151 109.111 176.874 108.279 176.319 107.683C175.765 107.081 175.003 106.78 174.035 106.78C173.369 106.78 172.773 106.924 172.247 107.214C171.728 107.503 171.318 107.925 171.017 108.479C170.716 109.034 170.565 109.707 170.565 110.498ZM183.058 118.677V105.08H185.147V118.677H183.058ZM184.12 102.814C183.713 102.814 183.362 102.675 183.067 102.398C182.778 102.121 182.633 101.787 182.633 101.398C182.633 101.008 182.778 100.675 183.067 100.398C183.362 100.12 183.713 99.9815 184.12 99.9815C184.527 99.9815 184.875 100.12 185.165 100.398C185.46 100.675 185.607 101.008 185.607 101.398C185.607 101.787 185.46 102.121 185.165 102.398C184.875 102.675 184.527 102.814 184.12 102.814ZM194.886 105.08V106.851H187.84V105.08H194.886ZM189.894 101.823H191.983V114.782C191.983 115.372 192.068 115.815 192.24 116.11C192.417 116.399 192.641 116.594 192.912 116.694C193.19 116.789 193.482 116.836 193.789 116.836C194.019 116.836 194.208 116.824 194.355 116.8C194.503 116.771 194.621 116.747 194.709 116.73L195.134 118.606C194.993 118.659 194.795 118.712 194.541 118.766C194.287 118.825 193.966 118.854 193.576 118.854C192.986 118.854 192.408 118.727 191.841 118.473C191.281 118.22 190.814 117.833 190.443 117.314C190.077 116.794 189.894 116.139 189.894 115.349V101.823ZM199.374 123.776C199.02 123.776 198.705 123.746 198.427 123.687C198.15 123.634 197.958 123.581 197.852 123.528L198.383 121.687C198.89 121.817 199.339 121.864 199.728 121.828C200.118 121.793 200.463 121.619 200.764 121.306C201.071 120.999 201.351 120.501 201.605 119.81L201.995 118.748L196.967 105.08H199.233L202.986 115.915H203.128L206.881 105.08H209.147L203.375 120.66C203.116 121.362 202.794 121.943 202.411 122.404C202.027 122.87 201.581 123.215 201.074 123.439C200.572 123.664 200.006 123.776 199.374 123.776Z" fill="#E9F6FF"/>
<circle cx="143.332" cy="57.867" r="25.8176" fill="#E9F6FF"/>
<path d="M134.888 43.3854V53.3312M151.588 43.3854V53.3312M133.844 58.3042H140.107M152.632 58.3042H146.369M133.844 64.2717H140.107M146.369 64.2717H152.632M130.713 48.3583H155.763C156.317 48.3583 156.848 48.5679 157.239 48.9409C157.631 49.314 157.851 49.8199 157.851 50.3475V70.2392C157.851 70.7667 157.631 71.2727 157.239 71.6457C156.848 72.0188 156.317 72.2283 155.763 72.2283H130.713C130.159 72.2283 129.628 72.0188 129.237 71.6457C128.845 71.2727 128.625 70.7667 128.625 70.2392V50.3475C128.625 49.8199 128.845 49.314 129.237 48.9409C129.628 48.5679 130.159 48.3583 130.713 48.3583V48.3583Z" stroke="#03446F" stroke-width="2.08751"/>
</svg>
