<svg width="287" height="169" viewBox="0 0 287 169" fill="none" xmlns="http://www.w3.org/2000/svg">
<rect x="0.260742" y="0.572632" width="286.664" height="168.3" rx="18.4945" fill="#03446F"/>
<path d="M81.1428 111.818H78.9475C78.8177 111.187 78.5905 110.632 78.2659 110.154C77.9472 109.676 77.5578 109.275 77.0975 108.95C76.643 108.62 76.1385 108.372 75.5838 108.207C75.029 108.041 74.4507 107.959 73.8488 107.959C72.7511 107.959 71.7567 108.236 70.8656 108.791C69.9804 109.346 69.2752 110.163 68.75 111.243C68.2307 112.323 67.971 113.648 67.971 115.218C67.971 116.787 68.2307 118.112 68.75 119.192C69.2752 120.272 69.9804 121.089 70.8656 121.644C71.7567 122.199 72.7511 122.476 73.8488 122.476C74.4507 122.476 75.029 122.394 75.5838 122.228C76.1385 122.063 76.643 121.818 77.0975 121.494C77.5578 121.163 77.9472 120.759 78.2659 120.281C78.5905 119.797 78.8177 119.242 78.9475 118.617H81.1428C80.9776 119.543 80.6766 120.372 80.2399 121.104C79.8032 121.836 79.2603 122.458 78.6111 122.972C77.962 123.479 77.2332 123.866 76.4247 124.131C75.6221 124.397 74.7635 124.53 73.8488 124.53C72.3026 124.53 70.9276 124.152 69.7237 123.397C68.5198 122.641 67.5727 121.567 66.8822 120.175C66.1917 118.782 65.8465 117.13 65.8465 115.218C65.8465 113.305 66.1917 111.653 66.8822 110.26C67.5727 108.868 68.5198 107.794 69.7237 107.038C70.9276 106.283 72.3026 105.905 73.8488 105.905C74.7635 105.905 75.6221 106.038 76.4247 106.304C77.2332 106.569 77.962 106.959 78.6111 107.472C79.2603 107.979 79.8032 108.599 80.2399 109.331C80.6766 110.057 80.9776 110.886 81.1428 111.818ZM89.9307 124.565C88.7032 124.565 87.6262 124.273 86.6997 123.689C85.7791 123.105 85.0591 122.287 84.5398 121.237C84.0264 120.186 83.7697 118.959 83.7697 117.554C83.7697 116.138 84.0264 114.902 84.5398 113.845C85.0591 112.789 85.7791 111.969 86.6997 111.385C87.6262 110.8 88.7032 110.508 89.9307 110.508C91.1582 110.508 92.2322 110.8 93.1528 111.385C94.0793 111.969 94.7993 112.789 95.3127 113.845C95.832 114.902 96.0917 116.138 96.0917 117.554C96.0917 118.959 95.832 120.186 95.3127 121.237C94.7993 122.287 94.0793 123.105 93.1528 123.689C92.2322 124.273 91.1582 124.565 89.9307 124.565ZM89.9307 122.689C90.8631 122.689 91.6303 122.45 92.2322 121.972C92.8341 121.494 93.2797 120.865 93.5689 120.086C93.858 119.307 94.0026 118.463 94.0026 117.554C94.0026 116.646 93.858 115.799 93.5689 115.014C93.2797 114.229 92.8341 113.595 92.2322 113.111C91.6303 112.627 90.8631 112.385 89.9307 112.385C88.9983 112.385 88.2311 112.627 87.6292 113.111C87.0272 113.595 86.5817 114.229 86.2925 115.014C86.0033 115.799 85.8587 116.646 85.8587 117.554C85.8587 118.463 86.0033 119.307 86.2925 120.086C86.5817 120.865 87.0272 121.494 87.6292 121.972C88.2311 122.45 88.9983 122.689 89.9307 122.689ZM99.2806 124.282V110.685H101.299V112.81H101.476C101.759 112.084 102.217 111.52 102.848 111.119C103.479 110.712 104.238 110.508 105.123 110.508C106.02 110.508 106.767 110.712 107.363 111.119C107.964 111.52 108.434 112.084 108.77 112.81H108.912C109.26 112.107 109.782 111.55 110.478 111.137C111.175 110.718 112.01 110.508 112.984 110.508C114.199 110.508 115.194 110.889 115.967 111.65C116.74 112.406 117.126 113.583 117.126 115.182V124.282H115.037V115.182C115.037 114.179 114.763 113.462 114.214 113.031C113.665 112.6 113.019 112.385 112.275 112.385C111.319 112.385 110.579 112.674 110.054 113.252C109.528 113.825 109.266 114.551 109.266 115.43V124.282H107.141V114.97C107.141 114.197 106.89 113.574 106.389 113.102C105.887 112.624 105.241 112.385 104.45 112.385C103.907 112.385 103.4 112.529 102.928 112.819C102.461 113.108 102.084 113.509 101.795 114.022C101.511 114.53 101.37 115.117 101.37 115.784V124.282H99.2806ZM120.946 129.381V110.685H122.964V112.845H123.212C123.366 112.609 123.578 112.308 123.849 111.942C124.127 111.57 124.522 111.24 125.036 110.951C125.555 110.656 126.257 110.508 127.142 110.508C128.287 110.508 129.296 110.794 130.17 111.367C131.043 111.939 131.725 112.751 132.215 113.801C132.704 114.852 132.949 116.091 132.949 117.519C132.949 118.959 132.704 120.207 132.215 121.263C131.725 122.314 131.046 123.128 130.179 123.707C129.311 124.279 128.311 124.565 127.178 124.565C126.304 124.565 125.605 124.421 125.08 124.131C124.555 123.836 124.15 123.503 123.867 123.131C123.584 122.754 123.366 122.441 123.212 122.193H123.035V129.381H120.946ZM123 117.484C123 118.51 123.15 119.416 123.451 120.201C123.752 120.98 124.192 121.591 124.77 122.034C125.348 122.47 126.057 122.689 126.895 122.689C127.768 122.689 128.497 122.458 129.081 121.998C129.671 121.532 130.114 120.906 130.409 120.122C130.71 119.331 130.86 118.451 130.86 117.484C130.86 116.528 130.713 115.666 130.418 114.899C130.128 114.126 129.689 113.515 129.099 113.066C128.514 112.612 127.78 112.385 126.895 112.385C126.045 112.385 125.331 112.6 124.752 113.031C124.174 113.456 123.737 114.052 123.442 114.819C123.147 115.58 123 116.469 123 117.484ZM141.837 124.565C140.527 124.565 139.397 124.276 138.446 123.698C137.502 123.114 136.773 122.299 136.26 121.255C135.752 120.204 135.499 118.983 135.499 117.59C135.499 116.197 135.752 114.97 136.26 113.907C136.773 112.839 137.487 112.007 138.402 111.411C139.323 110.809 140.397 110.508 141.624 110.508C142.332 110.508 143.032 110.626 143.722 110.862C144.413 111.098 145.041 111.482 145.608 112.013C146.174 112.538 146.626 113.235 146.962 114.102C147.298 114.97 147.467 116.038 147.467 117.307V118.192H136.986V116.386H145.342C145.342 115.619 145.189 114.934 144.882 114.332C144.581 113.73 144.15 113.255 143.589 112.907C143.035 112.559 142.38 112.385 141.624 112.385C140.792 112.385 140.072 112.591 139.464 113.004C138.863 113.412 138.399 113.943 138.075 114.598C137.75 115.253 137.588 115.955 137.588 116.705V117.909C137.588 118.935 137.765 119.806 138.119 120.52C138.479 121.228 138.978 121.768 139.615 122.14C140.252 122.506 140.993 122.689 141.837 122.689C142.386 122.689 142.881 122.612 143.324 122.458C143.772 122.299 144.159 122.063 144.484 121.75C144.808 121.432 145.059 121.036 145.236 120.564L147.254 121.131C147.042 121.815 146.685 122.417 146.183 122.936C145.682 123.45 145.062 123.851 144.324 124.14C143.587 124.424 142.757 124.565 141.837 124.565ZM156.558 110.685V112.456H149.511V110.685H156.558ZM151.565 107.428H153.654V120.387C153.654 120.977 153.74 121.42 153.911 121.715C154.088 122.004 154.312 122.199 154.584 122.299C154.861 122.394 155.153 122.441 155.46 122.441C155.69 122.441 155.879 122.429 156.027 122.405C156.174 122.376 156.292 122.352 156.381 122.335L156.806 124.211C156.664 124.264 156.466 124.317 156.212 124.371C155.959 124.43 155.637 124.459 155.248 124.459C154.657 124.459 154.079 124.332 153.513 124.078C152.952 123.825 152.486 123.438 152.114 122.919C151.748 122.399 151.565 121.744 151.565 120.954V107.428ZM159.7 124.282V110.685H161.789V124.282H159.7ZM160.762 108.419C160.355 108.419 160.004 108.28 159.709 108.003C159.42 107.726 159.275 107.392 159.275 107.003C159.275 106.613 159.42 106.28 159.709 106.003C160.004 105.725 160.355 105.586 160.762 105.586C161.17 105.586 161.518 105.725 161.807 106.003C162.102 106.28 162.25 106.613 162.25 107.003C162.25 107.392 162.102 107.726 161.807 108.003C161.518 108.28 161.17 108.419 160.762 108.419ZM171.529 110.685V112.456H164.483V110.685H171.529ZM166.536 107.428H168.625V120.387C168.625 120.977 168.711 121.42 168.882 121.715C169.059 122.004 169.283 122.199 169.555 122.299C169.832 122.394 170.124 122.441 170.431 122.441C170.661 122.441 170.85 122.429 170.998 122.405C171.145 122.376 171.263 122.352 171.352 122.335L171.777 124.211C171.635 124.264 171.437 124.317 171.183 124.371C170.93 124.43 170.608 124.459 170.219 124.459C169.628 124.459 169.05 124.332 168.484 124.078C167.923 123.825 167.457 123.438 167.085 122.919C166.719 122.399 166.536 121.744 166.536 120.954V107.428ZM174.671 124.282V110.685H176.76V124.282H174.671ZM175.733 108.419C175.326 108.419 174.975 108.28 174.68 108.003C174.391 107.726 174.246 107.392 174.246 107.003C174.246 106.613 174.391 106.28 174.68 106.003C174.975 105.725 175.326 105.586 175.733 105.586C176.141 105.586 176.489 105.725 176.778 106.003C177.073 106.28 177.221 106.613 177.221 107.003C177.221 107.392 177.073 107.726 176.778 108.003C176.489 108.28 176.141 108.419 175.733 108.419ZM186.11 124.565C184.883 124.565 183.806 124.273 182.879 123.689C181.959 123.105 181.239 122.287 180.719 121.237C180.206 120.186 179.949 118.959 179.949 117.554C179.949 116.138 180.206 114.902 180.719 113.845C181.239 112.789 181.959 111.969 182.879 111.385C183.806 110.8 184.883 110.508 186.11 110.508C187.338 110.508 188.412 110.8 189.332 111.385C190.259 111.969 190.979 112.789 191.492 113.845C192.012 114.902 192.271 116.138 192.271 117.554C192.271 118.959 192.012 120.186 191.492 121.237C190.979 122.287 190.259 123.105 189.332 123.689C188.412 124.273 187.338 124.565 186.11 124.565ZM186.11 122.689C187.043 122.689 187.81 122.45 188.412 121.972C189.014 121.494 189.459 120.865 189.748 120.086C190.038 119.307 190.182 118.463 190.182 117.554C190.182 116.646 190.038 115.799 189.748 115.014C189.459 114.229 189.014 113.595 188.412 113.111C187.81 112.627 187.043 112.385 186.11 112.385C185.178 112.385 184.411 112.627 183.809 113.111C183.207 113.595 182.761 114.229 182.472 115.014C182.183 115.799 182.038 116.646 182.038 117.554C182.038 118.463 182.183 119.307 182.472 120.086C182.761 120.865 183.207 121.494 183.809 121.972C184.411 122.45 185.178 122.689 186.11 122.689ZM197.549 116.103V124.282H195.46V110.685H197.478V112.81H197.655C197.974 112.119 198.458 111.565 199.107 111.146C199.756 110.721 200.594 110.508 201.621 110.508C202.542 110.508 203.347 110.697 204.038 111.075C204.728 111.447 205.265 112.013 205.649 112.774C206.032 113.53 206.224 114.486 206.224 115.642V124.282H204.135V115.784C204.135 114.716 203.858 113.884 203.303 113.288C202.748 112.686 201.987 112.385 201.019 112.385C200.352 112.385 199.756 112.529 199.231 112.819C198.712 113.108 198.302 113.53 198.001 114.084C197.7 114.639 197.549 115.312 197.549 116.103ZM219.673 113.73L217.796 114.261C217.678 113.949 217.504 113.645 217.274 113.35C217.05 113.049 216.743 112.801 216.353 112.606C215.964 112.411 215.465 112.314 214.857 112.314C214.025 112.314 213.332 112.506 212.777 112.889C212.228 113.267 211.954 113.748 211.954 114.332C211.954 114.852 212.143 115.262 212.52 115.563C212.898 115.864 213.488 116.115 214.291 116.315L216.309 116.811C217.525 117.106 218.43 117.557 219.027 118.165C219.623 118.767 219.921 119.543 219.921 120.493C219.921 121.272 219.696 121.969 219.248 122.582C218.805 123.196 218.186 123.68 217.389 124.034C216.592 124.388 215.666 124.565 214.609 124.565C213.223 124.565 212.075 124.264 211.166 123.662C210.257 123.06 209.682 122.181 209.44 121.024L211.423 120.529C211.611 121.26 211.968 121.809 212.494 122.175C213.025 122.541 213.718 122.724 214.574 122.724C215.548 122.724 216.321 122.517 216.893 122.104C217.471 121.685 217.761 121.184 217.761 120.6C217.761 120.127 217.595 119.732 217.265 119.413C216.934 119.089 216.427 118.847 215.742 118.687L213.476 118.156C212.231 117.861 211.316 117.404 210.732 116.784C210.154 116.159 209.865 115.377 209.865 114.439C209.865 113.671 210.08 112.993 210.511 112.403C210.948 111.812 211.541 111.349 212.29 111.013C213.045 110.676 213.901 110.508 214.857 110.508C216.203 110.508 217.259 110.803 218.026 111.393C218.799 111.984 219.348 112.763 219.673 113.73Z" fill="#E9F6FF"/>
<circle cx="143.592" cy="62.0007" r="25.8176" fill="#E9F6FF"/>
<path d="M136.69 66.7063L129.803 55.371C129.506 54.8819 129.367 54.3205 129.402 53.7565C129.437 53.1925 129.645 52.6506 130 52.1983L132.437 49.1121C132.719 48.7539 133.084 48.4631 133.505 48.2629C133.925 48.0626 134.388 47.9584 134.858 47.9584H153.02C153.49 47.9584 153.953 48.0626 154.373 48.2629C154.794 48.4631 155.159 48.7539 155.441 49.1121L157.863 52.1983C158.22 52.6492 158.431 53.1903 158.469 53.7543C158.506 54.3184 158.369 54.8806 158.075 55.371L151.188 66.7063M142.425 62.3799L133.526 48.2468M145.452 62.3799L154.351 48.2468M137.885 55.1691H149.993" stroke="#03446F" stroke-width="2.67078" stroke-linecap="round" stroke-linejoin="round"/>
<path d="M143.939 76.8013C148.118 76.8013 151.506 73.5729 151.506 69.5906C151.506 65.6082 148.118 62.3798 143.939 62.3798C139.759 62.3798 136.371 65.6082 136.371 69.5906C136.371 73.5729 139.759 76.8013 143.939 76.8013Z" stroke="#03446F" stroke-width="2.67078" stroke-linecap="round" stroke-linejoin="round"/>
<path d="M143.939 71.0327V68.1484H143.182" stroke="#03446F" stroke-width="2.67078" stroke-linecap="round" stroke-linejoin="round"/>
</svg>
