<svg width="289" height="170" viewBox="0 0 289 170" fill="none" xmlns="http://www.w3.org/2000/svg">
<rect x="0.375" y="0.572632" width="288.445" height="169.345" rx="18.6093" fill="#03446F"/>
<path d="M70.1709 124.282V106.153H72.3662V122.335H80.7933V124.282H70.1709ZM89.61 124.565C88.2999 124.565 87.1697 124.276 86.2196 123.698C85.2754 123.114 84.5466 122.299 84.0332 121.255C83.5257 120.204 83.2719 118.983 83.2719 117.59C83.2719 116.197 83.5257 114.97 84.0332 113.907C84.5466 112.839 85.2607 112.007 86.1754 111.411C87.096 110.809 88.17 110.508 89.3975 110.508C90.1057 110.508 90.805 110.626 91.4954 110.862C92.1859 111.098 92.8144 111.482 93.3809 112.013C93.9474 112.538 94.3989 113.235 94.7353 114.102C95.0717 114.97 95.2398 116.038 95.2398 117.307V118.192H84.759V116.386H93.1154C93.1154 115.619 92.9619 114.934 92.6551 114.332C92.3541 113.73 91.9233 113.255 91.3627 112.907C90.8079 112.559 90.1529 112.385 89.3975 112.385C88.5654 112.385 87.8454 112.591 87.2376 113.004C86.6357 113.412 86.1724 113.943 85.8478 114.598C85.5233 115.253 85.361 115.955 85.361 116.705V117.909C85.361 118.935 85.538 119.806 85.8921 120.52C86.2521 121.228 86.7507 121.768 87.3881 122.14C88.0254 122.506 88.7661 122.689 89.61 122.689C90.1588 122.689 90.6545 122.612 91.0971 122.458C91.5456 122.299 91.9321 122.063 92.2567 121.75C92.5813 121.432 92.8321 121.036 93.0091 120.564L95.0274 121.131C94.8149 121.815 94.4579 122.417 93.9563 122.936C93.4547 123.45 92.835 123.851 92.0974 124.14C91.3597 124.424 90.5306 124.565 89.61 124.565ZM102.419 124.601C101.557 124.601 100.775 124.438 100.073 124.114C99.3708 123.783 98.8131 123.308 98.4 122.689C97.9869 122.063 97.7804 121.308 97.7804 120.422C97.7804 119.644 97.9338 119.012 98.2407 118.528C98.5476 118.038 98.9577 117.655 99.4711 117.377C99.9845 117.1 100.551 116.893 101.171 116.758C101.796 116.616 102.425 116.504 103.056 116.421C103.882 116.315 104.552 116.235 105.066 116.182C105.585 116.123 105.963 116.026 106.199 115.89C106.441 115.755 106.562 115.518 106.562 115.182V115.111C106.562 114.238 106.323 113.559 105.845 113.075C105.372 112.591 104.655 112.349 103.694 112.349C102.696 112.349 101.914 112.568 101.348 113.004C100.781 113.441 100.383 113.907 100.153 114.403L98.1699 113.695C98.5239 112.869 98.9961 112.226 99.5862 111.765C100.182 111.299 100.831 110.974 101.534 110.791C102.242 110.603 102.938 110.508 103.623 110.508C104.059 110.508 104.561 110.561 105.128 110.668C105.7 110.768 106.252 110.977 106.783 111.296C107.32 111.615 107.765 112.096 108.12 112.739C108.474 113.382 108.651 114.244 108.651 115.324V124.282H106.562V122.441H106.455C106.314 122.736 106.078 123.052 105.747 123.388C105.417 123.724 104.977 124.011 104.428 124.247C103.879 124.483 103.21 124.601 102.419 124.601ZM102.738 122.724C103.564 122.724 104.26 122.562 104.827 122.237C105.399 121.913 105.83 121.494 106.119 120.98C106.414 120.467 106.562 119.927 106.562 119.36V117.448C106.473 117.554 106.278 117.652 105.977 117.74C105.682 117.823 105.34 117.897 104.951 117.962C104.567 118.021 104.192 118.074 103.826 118.121C103.466 118.162 103.174 118.198 102.95 118.227C102.407 118.298 101.9 118.413 101.427 118.572C100.961 118.726 100.584 118.959 100.294 119.272C100.011 119.579 99.8695 119.998 99.8695 120.529C99.8695 121.255 100.138 121.803 100.675 122.175C101.218 122.541 101.905 122.724 102.738 122.724ZM117.598 124.565C116.465 124.565 115.465 124.279 114.597 123.707C113.73 123.128 113.051 122.314 112.561 121.263C112.071 120.207 111.826 118.959 111.826 117.519C111.826 116.091 112.071 114.852 112.561 113.801C113.051 112.751 113.732 111.939 114.606 111.367C115.479 110.794 116.488 110.508 117.633 110.508C118.518 110.508 119.218 110.656 119.731 110.951C120.251 111.24 120.646 111.57 120.917 111.942C121.195 112.308 121.41 112.609 121.564 112.845H121.741V106.153H123.83V124.282H121.811V122.193H121.564C121.41 122.441 121.192 122.754 120.909 123.131C120.625 123.503 120.221 123.836 119.696 124.131C119.171 124.421 118.471 124.565 117.598 124.565ZM117.881 122.689C118.719 122.689 119.427 122.47 120.006 122.034C120.584 121.591 121.024 120.98 121.325 120.201C121.626 119.416 121.776 118.51 121.776 117.484C121.776 116.469 121.628 115.58 121.333 114.819C121.038 114.052 120.602 113.456 120.023 113.031C119.445 112.6 118.731 112.385 117.881 112.385C116.996 112.385 116.258 112.612 115.668 113.066C115.084 113.515 114.644 114.126 114.349 114.899C114.06 115.666 113.915 116.528 113.915 117.484C113.915 118.451 114.063 119.331 114.358 120.122C114.659 120.906 115.102 121.532 115.686 121.998C116.276 122.458 117.008 122.689 117.881 122.689ZM133.647 124.565C132.336 124.565 131.206 124.276 130.256 123.698C129.312 123.114 128.583 122.299 128.07 121.255C127.562 120.204 127.309 118.983 127.309 117.59C127.309 116.197 127.562 114.97 128.07 113.907C128.583 112.839 129.297 112.007 130.212 111.411C131.133 110.809 132.207 110.508 133.434 110.508C134.142 110.508 134.842 110.626 135.532 110.862C136.223 111.098 136.851 111.482 137.418 112.013C137.984 112.538 138.436 113.235 138.772 114.102C139.108 114.97 139.276 116.038 139.276 117.307V118.192H128.796V116.386H137.152C137.152 115.619 136.999 114.934 136.692 114.332C136.391 113.73 135.96 113.255 135.399 112.907C134.845 112.559 134.19 112.385 133.434 112.385C132.602 112.385 131.882 112.591 131.274 113.004C130.672 113.412 130.209 113.943 129.884 114.598C129.56 115.253 129.398 115.955 129.398 116.705V117.909C129.398 118.935 129.575 119.806 129.929 120.52C130.289 121.228 130.787 121.768 131.425 122.14C132.062 122.506 132.803 122.689 133.647 122.689C134.195 122.689 134.691 122.612 135.134 122.458C135.582 122.299 135.969 122.063 136.293 121.75C136.618 121.432 136.869 121.036 137.046 120.564L139.064 121.131C138.852 121.815 138.495 122.417 137.993 122.936C137.491 123.45 136.872 123.851 136.134 124.14C135.396 124.424 134.567 124.565 133.647 124.565ZM142.454 124.282V110.685H144.473V112.739H144.614C144.862 112.066 145.311 111.52 145.96 111.101C146.609 110.682 147.341 110.473 148.155 110.473C148.309 110.473 148.5 110.476 148.73 110.482C148.961 110.488 149.135 110.496 149.253 110.508V112.633C149.182 112.615 149.02 112.588 148.766 112.553C148.518 112.512 148.255 112.491 147.978 112.491C147.317 112.491 146.727 112.63 146.208 112.907C145.694 113.179 145.287 113.556 144.986 114.04C144.691 114.518 144.543 115.064 144.543 115.678V124.282H142.454ZM152.012 124.282V106.153H154.101V112.845H154.278C154.432 112.609 154.644 112.308 154.916 111.942C155.193 111.57 155.589 111.24 156.102 110.951C156.621 110.656 157.324 110.508 158.209 110.508C159.354 110.508 160.363 110.794 161.236 111.367C162.11 111.939 162.791 112.751 163.281 113.801C163.771 114.852 164.016 116.091 164.016 117.519C164.016 118.959 163.771 120.207 163.281 121.263C162.791 122.314 162.113 123.128 161.245 123.707C160.378 124.279 159.377 124.565 158.244 124.565C157.371 124.565 156.671 124.421 156.146 124.131C155.621 123.836 155.217 123.503 154.934 123.131C154.65 122.754 154.432 122.441 154.278 122.193H154.031V124.282H152.012ZM154.066 117.484C154.066 118.51 154.217 119.416 154.517 120.201C154.818 120.98 155.258 121.591 155.836 122.034C156.415 122.47 157.123 122.689 157.961 122.689C158.834 122.689 159.563 122.458 160.147 121.998C160.738 121.532 161.18 120.906 161.475 120.122C161.776 119.331 161.927 118.451 161.927 117.484C161.927 116.528 161.779 115.666 161.484 114.899C161.195 114.126 160.755 113.515 160.165 113.066C159.581 112.612 158.846 112.385 157.961 112.385C157.111 112.385 156.397 112.6 155.819 113.031C155.24 113.456 154.804 114.052 154.509 114.819C154.214 115.58 154.066 116.469 154.066 117.484ZM172.735 124.565C171.507 124.565 170.43 124.273 169.504 123.689C168.583 123.105 167.863 122.287 167.344 121.237C166.831 120.186 166.574 118.959 166.574 117.554C166.574 116.138 166.831 114.902 167.344 113.845C167.863 112.789 168.583 111.969 169.504 111.385C170.43 110.8 171.507 110.508 172.735 110.508C173.962 110.508 175.036 110.8 175.957 111.385C176.884 111.969 177.604 112.789 178.117 113.845C178.636 114.902 178.896 116.138 178.896 117.554C178.896 118.959 178.636 120.186 178.117 121.237C177.604 122.287 176.884 123.105 175.957 123.689C175.036 124.273 173.962 124.565 172.735 124.565ZM172.735 122.689C173.667 122.689 174.435 122.45 175.036 121.972C175.638 121.494 176.084 120.865 176.373 120.086C176.662 119.307 176.807 118.463 176.807 117.554C176.807 116.646 176.662 115.799 176.373 115.014C176.084 114.229 175.638 113.595 175.036 113.111C174.435 112.627 173.667 112.385 172.735 112.385C171.803 112.385 171.035 112.627 170.433 113.111C169.831 113.595 169.386 114.229 169.097 115.014C168.808 115.799 168.663 116.646 168.663 117.554C168.663 118.463 168.808 119.307 169.097 120.086C169.386 120.865 169.831 121.494 170.433 121.972C171.035 122.45 171.803 122.689 172.735 122.689ZM186.086 124.601C185.224 124.601 184.443 124.438 183.74 124.114C183.038 123.783 182.48 123.308 182.067 122.689C181.654 122.063 181.448 121.308 181.448 120.422C181.448 119.644 181.601 119.012 181.908 118.528C182.215 118.038 182.625 117.655 183.138 117.377C183.652 117.1 184.218 116.893 184.838 116.758C185.463 116.616 186.092 116.504 186.723 116.421C187.55 116.315 188.219 116.235 188.733 116.182C189.252 116.123 189.63 116.026 189.866 115.89C190.108 115.755 190.229 115.518 190.229 115.182V115.111C190.229 114.238 189.99 113.559 189.512 113.075C189.04 112.591 188.323 112.349 187.361 112.349C186.363 112.349 185.581 112.568 185.015 113.004C184.448 113.441 184.05 113.907 183.82 114.403L181.837 113.695C182.191 112.869 182.663 112.226 183.253 111.765C183.849 111.299 184.499 110.974 185.201 110.791C185.909 110.603 186.605 110.508 187.29 110.508C187.727 110.508 188.228 110.561 188.795 110.668C189.367 110.768 189.919 110.977 190.45 111.296C190.987 111.615 191.433 112.096 191.787 112.739C192.141 113.382 192.318 114.244 192.318 115.324V124.282H190.229V122.441H190.123C189.981 122.736 189.745 123.052 189.414 123.388C189.084 123.724 188.644 124.011 188.095 124.247C187.547 124.483 186.877 124.601 186.086 124.601ZM186.405 122.724C187.231 122.724 187.927 122.562 188.494 122.237C189.066 121.913 189.497 121.494 189.786 120.98C190.081 120.467 190.229 119.927 190.229 119.36V117.448C190.14 117.554 189.946 117.652 189.645 117.74C189.349 117.823 189.007 117.897 188.618 117.962C188.234 118.021 187.859 118.074 187.494 118.121C187.134 118.162 186.841 118.198 186.617 118.227C186.074 118.298 185.567 118.413 185.095 118.572C184.628 118.726 184.251 118.959 183.962 119.272C183.678 119.579 183.537 119.998 183.537 120.529C183.537 121.255 183.805 121.803 184.342 122.175C184.885 122.541 185.573 122.724 186.405 122.724ZM196.131 124.282V110.685H198.149V112.739H198.291C198.539 112.066 198.987 111.52 199.636 111.101C200.285 110.682 201.017 110.473 201.832 110.473C201.985 110.473 202.177 110.476 202.407 110.482C202.637 110.488 202.811 110.496 202.929 110.508V112.633C202.858 112.615 202.696 112.588 202.442 112.553C202.195 112.512 201.932 112.491 201.655 112.491C200.994 112.491 200.403 112.63 199.884 112.907C199.371 113.179 198.964 113.556 198.663 114.04C198.367 114.518 198.22 115.064 198.22 115.678V124.282H196.131ZM210.126 124.565C208.993 124.565 207.993 124.279 207.125 123.707C206.258 123.128 205.579 122.314 205.089 121.263C204.599 120.207 204.354 118.959 204.354 117.519C204.354 116.091 204.599 114.852 205.089 113.801C205.579 112.751 206.261 111.939 207.134 111.367C208.007 110.794 209.016 110.508 210.161 110.508C211.047 110.508 211.746 110.656 212.259 110.951C212.779 111.24 213.174 111.57 213.445 111.942C213.723 112.308 213.938 112.609 214.092 112.845H214.269V106.153H216.358V124.282H214.34V122.193H214.092C213.938 122.441 213.72 122.754 213.437 123.131C213.153 123.503 212.749 123.836 212.224 124.131C211.699 124.421 210.999 124.565 210.126 124.565ZM210.409 122.689C211.247 122.689 211.955 122.47 212.534 122.034C213.112 121.591 213.552 120.98 213.853 120.201C214.154 119.416 214.304 118.51 214.304 117.484C214.304 116.469 214.157 115.58 213.862 114.819C213.566 114.052 213.13 113.456 212.551 113.031C211.973 112.6 211.259 112.385 210.409 112.385C209.524 112.385 208.786 112.612 208.196 113.066C207.612 113.515 207.172 114.126 206.877 114.899C206.588 115.666 206.443 116.528 206.443 117.484C206.443 118.451 206.591 119.331 206.886 120.122C207.187 120.906 207.63 121.532 208.214 121.998C208.804 122.458 209.536 122.689 210.409 122.689Z" fill="#E9F6FF"/>
<circle cx="143.648" cy="62.0007" r="25.8176" fill="#E9F6FF"/>
<path d="M153.192 60.4756L155.011 49.1507C155.056 48.8285 154.972 48.5494 154.758 48.3131C154.545 48.0768 154.28 47.9587 153.965 47.9587H134.843V47.9584H134.841C134.526 47.9584 134.262 48.0765 134.048 48.3128C133.834 48.5491 133.749 48.8282 133.795 49.1504L135.615 60.4779C134.321 62.1782 133.647 64.1856 133.594 66.5004C133.661 69.4191 134.714 71.8495 136.752 73.7915C138.79 75.7336 141.341 76.7366 144.404 76.8013C147.467 76.737 150.017 75.7336 152.056 73.7915C154.094 71.8492 155.146 69.4191 155.214 66.5004C155.16 64.1846 154.486 62.1766 153.192 60.4756V60.4756ZM148.728 50.0189H152.682L151.364 58.1959C150.663 57.8534 149.987 57.5608 149.339 57.3177C149.139 57.2212 148.935 57.131 148.728 57.047V50.0189H148.728V50.0189ZM146.566 50.0189V56.4171C146.121 56.334 145.663 56.2745 145.192 56.2384C144.919 56.2127 144.657 56.1998 144.404 56.1998C144.048 56.1998 143.691 56.221 143.335 56.2629C142.968 56.2984 142.604 56.3499 142.242 56.4171V50.0189H146.566ZM140.08 50.0189H140.081V57.0461C139.871 57.1317 139.664 57.2231 139.461 57.3216C138.815 57.5643 138.143 57.856 137.446 58.1959L136.128 50.0189H140.08ZM150.518 72.3265C148.897 73.8717 146.859 74.6765 144.404 74.7412C141.949 74.6765 139.911 73.8717 138.29 72.3265C136.668 70.7814 135.824 68.8394 135.756 66.5004C135.824 64.1614 136.668 62.2194 138.29 60.6742C138.954 60.0411 139.689 59.5325 140.493 59.1481C141.788 58.664 142.897 58.3781 143.819 58.2902C143.99 58.277 144.163 58.2677 144.338 58.2619C144.36 58.2616 144.382 58.2609 144.403 58.2609C144.425 58.2609 144.449 58.2619 144.471 58.2622C144.644 58.2677 144.814 58.277 144.982 58.2899C145.908 58.3771 147.022 58.6649 148.324 59.1523C149.125 59.5363 149.856 60.0436 150.518 60.6746C152.14 62.2197 152.984 64.1618 153.052 66.5007C152.984 68.8394 152.14 70.7814 150.518 72.3265V72.3265Z" fill="#03446F"/>
<path d="M145.04 61.5316H142.496L141.606 64.0766L142.878 63.5918V69.7724H140.716V71.8326H147.202V69.7724H145.04V61.5316Z" fill="#03446F"/>
</svg>
