<svg width="289" height="171" viewBox="0 0 289 171" fill="none" xmlns="http://www.w3.org/2000/svg">
<rect x="0.31543" y="0.8125" width="288.445" height="169.345" rx="18.6093" fill="#03446F"/>
<path d="M95.0986 101.871H97.7188L103.88 116.919H104.092L110.253 101.871H112.874V120H110.82V106.226H110.643L104.977 120H102.995L97.3293 106.226H97.1523V120H95.0986V101.871ZM120.993 120.319C120.131 120.319 119.35 120.156 118.647 119.832C117.945 119.501 117.387 119.026 116.974 118.407C116.561 117.781 116.355 117.026 116.355 116.141C116.355 115.362 116.508 114.73 116.815 114.246C117.122 113.756 117.532 113.373 118.045 113.095C118.559 112.818 119.125 112.612 119.745 112.476C120.37 112.334 120.999 112.222 121.63 112.139C122.457 112.033 123.126 111.954 123.64 111.9C124.159 111.841 124.537 111.744 124.773 111.608C125.015 111.473 125.136 111.236 125.136 110.9V110.829C125.136 109.956 124.897 109.277 124.419 108.793C123.947 108.309 123.23 108.067 122.268 108.067C121.27 108.067 120.488 108.286 119.922 108.723C119.355 109.159 118.957 109.625 118.727 110.121L116.744 109.413C117.098 108.587 117.57 107.944 118.16 107.483C118.756 107.017 119.406 106.692 120.108 106.51C120.816 106.321 121.512 106.226 122.197 106.226C122.634 106.226 123.135 106.279 123.702 106.386C124.274 106.486 124.826 106.695 125.357 107.014C125.894 107.333 126.34 107.814 126.694 108.457C127.048 109.1 127.225 109.962 127.225 111.042V120H125.136V118.159H125.03C124.888 118.454 124.652 118.77 124.321 119.106C123.991 119.442 123.551 119.729 123.002 119.965C122.454 120.201 121.784 120.319 120.993 120.319ZM121.312 118.442C122.138 118.442 122.834 118.28 123.401 117.955C123.973 117.631 124.404 117.212 124.693 116.698C124.988 116.185 125.136 115.645 125.136 115.078V113.166C125.047 113.272 124.853 113.37 124.552 113.458C124.256 113.541 123.914 113.615 123.525 113.68C123.141 113.739 122.766 113.792 122.401 113.839C122.041 113.88 121.748 113.916 121.524 113.945C120.981 114.016 120.474 114.131 120.002 114.29C119.535 114.444 119.158 114.677 118.869 114.99C118.585 115.297 118.444 115.716 118.444 116.247C118.444 116.973 118.712 117.521 119.249 117.893C119.792 118.259 120.48 118.442 121.312 118.442ZM136.951 106.403V108.174H129.905V106.403H136.951ZM131.958 103.146H134.048V116.105C134.048 116.695 134.133 117.138 134.304 117.433C134.481 117.722 134.706 117.917 134.977 118.017C135.254 118.112 135.547 118.159 135.853 118.159C136.084 118.159 136.272 118.147 136.42 118.123C136.567 118.094 136.685 118.07 136.774 118.053L137.199 119.929C137.057 119.982 136.86 120.035 136.606 120.089C136.352 120.148 136.03 120.177 135.641 120.177C135.051 120.177 134.472 120.05 133.906 119.796C133.345 119.543 132.879 119.156 132.507 118.637C132.141 118.117 131.958 117.462 131.958 116.672V103.146ZM145.471 120.283C144.196 120.283 143.099 119.982 142.178 119.38C141.258 118.778 140.549 117.949 140.054 116.893C139.558 115.837 139.31 114.63 139.31 113.272C139.31 111.892 139.564 110.673 140.071 109.617C140.585 108.554 141.299 107.725 142.214 107.129C143.134 106.527 144.208 106.226 145.436 106.226C146.392 106.226 147.253 106.403 148.021 106.757C148.788 107.111 149.416 107.607 149.906 108.245C150.396 108.882 150.7 109.625 150.818 110.475H148.729C148.569 109.856 148.215 109.307 147.666 108.829C147.123 108.345 146.392 108.103 145.471 108.103C144.657 108.103 143.943 108.315 143.329 108.74C142.721 109.159 142.246 109.752 141.904 110.519C141.567 111.281 141.399 112.175 141.399 113.202C141.399 114.252 141.564 115.167 141.895 115.946C142.231 116.725 142.703 117.33 143.311 117.76C143.925 118.191 144.645 118.407 145.471 118.407C146.014 118.407 146.507 118.312 146.949 118.123C147.392 117.935 147.767 117.663 148.074 117.309C148.38 116.955 148.599 116.53 148.729 116.034H150.818C150.7 116.837 150.408 117.56 149.941 118.203C149.481 118.84 148.87 119.348 148.109 119.726C147.354 120.097 146.474 120.283 145.471 120.283ZM155.961 111.821V120H153.872V101.871H155.961V108.528H156.138C156.456 107.826 156.934 107.268 157.572 106.855C158.215 106.436 159.071 106.226 160.139 106.226C161.065 106.226 161.877 106.412 162.573 106.784C163.27 107.15 163.81 107.713 164.193 108.475C164.583 109.23 164.777 110.192 164.777 111.36V120H162.688V111.502C162.688 110.422 162.408 109.587 161.847 108.997C161.293 108.401 160.523 108.103 159.537 108.103C158.852 108.103 158.239 108.247 157.696 108.537C157.159 108.826 156.734 109.248 156.421 109.802C156.114 110.357 155.961 111.03 155.961 111.821ZM174.3 120.283C172.99 120.283 171.86 119.994 170.91 119.416C169.965 118.832 169.237 118.017 168.723 116.973C168.216 115.922 167.962 114.701 167.962 113.308C167.962 111.915 168.216 110.688 168.723 109.625C169.237 108.557 169.951 107.725 170.865 107.129C171.786 106.527 172.86 106.226 174.088 106.226C174.796 106.226 175.495 106.344 176.185 106.58C176.876 106.816 177.504 107.2 178.071 107.731C178.637 108.256 179.089 108.953 179.425 109.82C179.762 110.688 179.93 111.756 179.93 113.025V113.91H169.449V112.104H177.805C177.805 111.337 177.652 110.652 177.345 110.05C177.044 109.448 176.613 108.973 176.053 108.625C175.498 108.277 174.843 108.103 174.088 108.103C173.255 108.103 172.535 108.309 171.928 108.723C171.326 109.13 170.862 109.661 170.538 110.316C170.213 110.971 170.051 111.673 170.051 112.423V113.627C170.051 114.653 170.228 115.524 170.582 116.238C170.942 116.946 171.441 117.486 172.078 117.858C172.715 118.224 173.456 118.407 174.3 118.407C174.849 118.407 175.345 118.33 175.787 118.176C176.236 118.017 176.622 117.781 176.947 117.468C177.271 117.15 177.522 116.754 177.699 116.282L179.717 116.849C179.505 117.533 179.148 118.135 178.646 118.654C178.145 119.168 177.525 119.569 176.787 119.858C176.05 120.142 175.221 120.283 174.3 120.283ZM192.739 109.448L190.862 109.979C190.744 109.667 190.57 109.363 190.34 109.068C190.116 108.767 189.809 108.519 189.419 108.324C189.03 108.129 188.531 108.032 187.923 108.032C187.091 108.032 186.398 108.224 185.843 108.607C185.294 108.985 185.02 109.466 185.02 110.05C185.02 110.57 185.209 110.98 185.586 111.281C185.964 111.582 186.554 111.833 187.357 112.033L189.375 112.529C190.591 112.824 191.497 113.275 192.093 113.883C192.689 114.485 192.987 115.261 192.987 116.211C192.987 116.99 192.762 117.687 192.314 118.3C191.871 118.914 191.252 119.398 190.455 119.752C189.658 120.106 188.732 120.283 187.675 120.283C186.289 120.283 185.141 119.982 184.232 119.38C183.323 118.778 182.748 117.899 182.506 116.742L184.489 116.247C184.678 116.979 185.035 117.527 185.56 117.893C186.091 118.259 186.784 118.442 187.64 118.442C188.614 118.442 189.387 118.235 189.959 117.822C190.538 117.403 190.827 116.902 190.827 116.318C190.827 115.845 190.661 115.45 190.331 115.131C190.001 114.807 189.493 114.565 188.808 114.406L186.542 113.874C185.297 113.579 184.382 113.122 183.798 112.502C183.22 111.877 182.931 111.095 182.931 110.157C182.931 109.389 183.146 108.711 183.577 108.121C184.014 107.53 184.607 107.067 185.356 106.731C186.112 106.394 186.967 106.226 187.923 106.226C189.269 106.226 190.325 106.521 191.092 107.111C191.865 107.702 192.414 108.481 192.739 109.448Z" fill="#E9F6FF"/>
<circle cx="143.648" cy="58.6795" r="25.8176" fill="#E9F6FF"/>
<path d="M159.255 58.772C159.267 58.7314 159.272 58.6893 159.27 58.6472C159.273 58.6005 159.268 58.5537 159.255 58.5085C159.225 54.7054 157.618 51.0678 154.787 48.3875C151.955 45.7073 148.127 44.2015 144.135 44.198H144.106C140.127 44.2087 136.313 45.712 133.489 48.3825C130.665 51.053 129.058 54.6758 129.015 58.4669C129.004 58.5075 128.999 58.5497 129.001 58.5917C128.998 58.6384 129.003 58.6853 129.015 58.7304C129.046 62.5336 130.652 66.1712 133.484 68.8514C136.316 71.5316 140.144 73.0374 144.135 73.041H144.164C148.143 73.0302 151.957 71.527 154.782 68.8565C157.606 66.186 159.213 62.5631 159.255 58.772ZM135.084 49.9943C137.176 47.9949 139.934 46.754 142.884 46.486C142.597 49.2952 141.296 51.9223 139.201 53.918C137.107 55.9137 134.35 57.1541 131.402 57.4269C131.68 54.6154 132.982 51.9855 135.084 49.9943ZM131.387 59.6595C134.959 59.3788 138.311 57.8993 140.845 55.4843C143.38 53.0694 144.932 49.8758 145.227 46.4722C148.233 46.7141 151.053 47.962 153.186 49.995C155.32 52.0279 156.629 54.7147 156.883 57.5795C153.311 57.8602 149.96 59.3397 147.425 61.7546C144.891 64.1696 143.339 67.3631 143.044 70.7668C140.037 70.5249 137.218 69.2769 135.084 67.244C132.951 65.2111 131.641 62.5243 131.387 59.6595ZM145.387 70.7529C145.673 67.9438 146.975 65.3167 149.069 63.321C151.164 61.3253 153.921 60.0849 156.869 59.812C156.582 62.6212 155.281 65.2483 153.186 67.244C151.092 69.2397 148.335 70.4801 145.387 70.7529Z" fill="#03446F"/>
</svg>
