<svg width="292" height="167" viewBox="0 0 292 167" fill="none" xmlns="http://www.w3.org/2000/svg">
<path d="M37.3021 89.0364V68.3645H3.74219V61.0911L41.1302 7.1145H53.6354V58.9218H65.7578V68.3645H53.6354V89.0364H37.3021ZM9.35677 58.9218H37.3021V18.7265L9.35677 58.9218ZM101.37 90.9504C96.2662 90.9504 91.4598 89.5043 86.9511 86.6119C82.5275 83.7195 78.9545 79.1683 76.2323 72.9583C73.5101 66.7482 72.149 58.6666 72.149 48.7135C72.149 38.6753 73.5101 30.5511 76.2323 24.3411C78.9545 18.0459 82.5275 13.4522 86.9511 10.5598C91.4598 7.66745 96.2662 6.22126 101.37 6.22126C106.475 6.22126 111.238 7.66745 115.662 10.5598C120.171 13.4522 123.786 18.0459 126.508 24.3411C129.316 30.5511 130.719 38.6753 130.719 48.7135C130.719 58.6666 129.316 66.7482 126.508 72.9583C123.786 79.1683 120.171 83.7195 115.662 86.6119C111.238 89.5043 106.475 90.9504 101.37 90.9504ZM101.37 88.3984C103.497 88.3984 105.284 87.8454 106.73 86.7395C108.261 85.6336 109.494 83.6345 110.43 80.7421C111.366 77.8497 112.047 73.8515 112.472 68.7473C112.897 63.5581 113.11 56.8801 113.11 48.7135C113.11 40.5468 112.897 33.8688 112.472 28.6796C112.047 23.4053 111.366 19.322 110.43 16.4296C109.494 13.5372 108.261 11.5381 106.73 10.4322C105.284 9.3263 103.497 8.77335 101.37 8.77335C99.2436 8.77335 97.4146 9.3263 95.8834 10.4322C94.4372 11.5381 93.2462 13.5372 92.3104 16.4296C91.3747 19.2369 90.6941 23.2777 90.2688 28.552C89.8434 33.7412 89.6308 40.4617 89.6308 48.7135C89.6308 56.8801 89.8434 63.5581 90.2688 68.7473C90.6941 73.9365 91.3747 77.9773 92.3104 80.8697C93.2462 83.677 94.4372 85.6336 95.8834 86.7395C97.4146 87.8454 99.2436 88.3984 101.37 88.3984ZM170.015 89.0364V68.3645H136.456V61.0911L173.844 7.1145H186.349V58.9218H198.471V68.3645H186.349V89.0364H170.015ZM142.07 58.9218H170.015V18.7265L142.07 58.9218Z" fill="#7CA4BE"/>
<path d="M4.89573 123.538L1.7337 112.908C1.65033 112.634 1.56101 112.438 1.46573 112.319C1.37045 112.188 1.20372 112.069 0.965521 111.962L0.751146 111.872V111.694H5.48526V111.872L5.1101 112.015C4.83618 112.122 4.65158 112.253 4.5563 112.408C4.46102 112.563 4.45507 112.777 4.53844 113.051L6.48568 120.483L8.5937 114.248L8.18281 112.98C8.09945 112.73 8.02203 112.539 7.95057 112.408C7.87912 112.277 7.76002 112.17 7.59328 112.087L7.20026 111.872V111.694H11.6843V111.872L11.1305 112.087C10.8923 112.17 10.7553 112.295 10.7196 112.462C10.6958 112.617 10.7255 112.819 10.8089 113.069L13.0777 120.662L15.2215 113.212C15.3048 112.926 15.3346 112.676 15.3108 112.462C15.287 112.247 15.1381 112.093 14.8642 111.997L14.489 111.872V111.694H16.9722V111.872L16.5077 112.051C16.2695 112.134 16.1028 112.265 16.0075 112.444C15.9122 112.623 15.8289 112.843 15.7574 113.105L12.7919 123.538H11.5592L8.87953 115.141L6.12839 123.538H4.89573ZM20.4414 114.623C21.2155 114.623 21.8765 114.784 22.4244 115.106C22.9722 115.415 23.3891 115.844 23.6749 116.392C23.9726 116.928 24.1215 117.541 24.1215 118.232C24.1215 118.363 24.1156 118.5 24.1036 118.643C24.0917 118.774 24.0679 118.893 24.0322 119H18.7085C18.7205 120.286 18.9467 121.215 19.3874 121.787C19.84 122.347 20.5069 122.627 21.3882 122.627C21.9837 122.627 22.4661 122.531 22.8353 122.341C23.2045 122.15 23.5498 121.87 23.8714 121.501L24.0501 121.662C23.6809 122.317 23.1866 122.829 22.5673 123.198C21.9599 123.568 21.2274 123.752 20.3699 123.752C19.5244 123.752 18.774 123.574 18.119 123.216C17.464 122.847 16.9519 122.323 16.5827 121.644C16.2135 120.965 16.0289 120.155 16.0289 119.215C16.0289 118.238 16.2432 117.41 16.672 116.731C17.1007 116.041 17.6486 115.517 18.3155 115.159C18.9944 114.802 19.703 114.623 20.4414 114.623ZM20.3878 114.981C20.0424 114.981 19.7447 115.088 19.4946 115.302C19.2564 115.505 19.0658 115.874 18.9229 116.41C18.7919 116.934 18.7205 117.678 18.7085 118.643H21.7634C21.8825 117.345 21.8348 116.41 21.6205 115.838C21.4061 115.267 20.9952 114.981 20.3878 114.981ZM31.8678 123.752C31.177 123.752 30.5934 123.556 30.117 123.163C29.6526 122.77 29.4203 122.204 29.4203 121.466C29.4203 120.906 29.7061 120.394 30.2778 119.929C30.8495 119.453 31.7487 119.096 32.9754 118.857C33.1659 118.822 33.3803 118.786 33.6185 118.75C33.8567 118.702 34.1068 118.655 34.3688 118.607V117.196C34.3688 116.386 34.2676 115.82 34.0651 115.499C33.8746 115.165 33.5709 114.999 33.154 114.999C32.8682 114.999 32.6419 115.094 32.4752 115.284C32.3084 115.463 32.2012 115.779 32.1536 116.231L32.1179 116.428C32.094 116.94 31.969 117.315 31.7427 117.553C31.5164 117.791 31.2365 117.911 30.9031 117.911C30.5934 117.911 30.3374 117.815 30.1349 117.625C29.9324 117.434 29.8312 117.178 29.8312 116.856C29.8312 116.368 29.9979 115.957 30.3314 115.624C30.6768 115.29 31.1294 115.04 31.6891 114.874C32.2489 114.707 32.8563 114.623 33.5113 114.623C34.5713 114.623 35.3871 114.885 35.9588 115.409C36.5423 115.922 36.8341 116.761 36.8341 117.928V121.876C36.8341 122.412 37.0842 122.68 37.5844 122.68H37.9774L38.1382 122.823C37.9119 123.109 37.6618 123.329 37.3879 123.484C37.1259 123.639 36.7507 123.716 36.2624 123.716C35.7384 123.716 35.3216 123.597 35.0119 123.359C34.7142 123.109 34.5177 122.782 34.4224 122.377C34.0651 122.758 33.6959 123.085 33.3148 123.359C32.9456 123.621 32.4632 123.752 31.8678 123.752ZM32.9575 122.662C33.1957 122.662 33.416 122.609 33.6185 122.502C33.8329 122.383 34.083 122.204 34.3688 121.966V118.965C34.2497 118.988 34.1306 119.012 34.0115 119.036C33.8924 119.06 33.7555 119.084 33.6006 119.107C33.0528 119.25 32.6121 119.494 32.2786 119.84C31.9571 120.173 31.7963 120.626 31.7963 121.198C31.7963 121.686 31.9094 122.055 32.1357 122.305C32.362 122.543 32.6359 122.662 32.9575 122.662ZM38.6496 123.484V123.306L38.9176 123.234C39.1558 123.163 39.3165 123.056 39.3999 122.913C39.4952 122.77 39.5428 122.585 39.5428 122.359V116.767C39.5428 116.505 39.4952 116.315 39.3999 116.196C39.3165 116.064 39.1558 115.975 38.9176 115.928L38.6496 115.856V115.677L41.7223 114.641L41.901 114.82L42.0617 116.356V116.499C42.2285 116.166 42.4429 115.862 42.7049 115.588C42.9788 115.302 43.2765 115.07 43.5981 114.891C43.9316 114.713 44.2591 114.623 44.5806 114.623C45.0332 114.623 45.3786 114.748 45.6168 114.999C45.855 115.249 45.9741 115.564 45.9741 115.945C45.9741 116.35 45.855 116.666 45.6168 116.892C45.3905 117.107 45.1166 117.214 44.795 117.214C44.2948 117.214 43.8542 116.964 43.473 116.463L43.4373 116.428C43.3182 116.261 43.1813 116.172 43.0264 116.16C42.8716 116.136 42.7287 116.207 42.5977 116.374C42.4786 116.481 42.3773 116.612 42.294 116.767C42.2225 116.91 42.1511 117.077 42.0796 117.267V122.252C42.0796 122.728 42.288 123.026 42.7049 123.145L43.2765 123.306V123.484H38.6496ZM50.9187 114.623C51.6928 114.623 52.3538 114.784 52.9016 115.106C53.4495 115.415 53.8663 115.844 54.1522 116.392C54.4499 116.928 54.5988 117.541 54.5988 118.232C54.5988 118.363 54.5928 118.5 54.5809 118.643C54.569 118.774 54.5452 118.893 54.5094 119H49.1858C49.1977 120.286 49.424 121.215 49.8647 121.787C50.3172 122.347 50.9842 122.627 51.8655 122.627C52.461 122.627 52.9433 122.531 53.3125 122.341C53.6817 122.15 54.0271 121.87 54.3487 121.501L54.5273 121.662C54.1581 122.317 53.6639 122.829 53.0446 123.198C52.4372 123.568 51.7047 123.752 50.8472 123.752C50.0016 123.752 49.2513 123.574 48.5963 123.216C47.9412 122.847 47.4291 122.323 47.0599 121.644C46.6907 120.965 46.5061 120.155 46.5061 119.215C46.5061 118.238 46.7205 117.41 47.1492 116.731C47.578 116.041 48.1258 115.517 48.7928 115.159C49.4716 114.802 50.1803 114.623 50.9187 114.623ZM50.8651 114.981C50.5197 114.981 50.2219 115.088 49.9718 115.302C49.7336 115.505 49.5431 115.874 49.4002 116.41C49.2692 116.934 49.1977 117.678 49.1858 118.643H52.2406C52.3597 117.345 52.3121 116.41 52.0977 115.838C51.8834 115.267 51.4725 114.981 50.8651 114.981ZM62.8274 123.752C62.2438 123.752 61.7198 123.681 61.2553 123.538C60.7908 123.407 60.362 123.24 59.969 123.038L59.9869 120.912H60.1655L60.7729 121.984C61.0349 122.46 61.3208 122.817 61.6304 123.056C61.952 123.282 62.3569 123.395 62.8452 123.395C63.4169 123.395 63.8754 123.27 64.2208 123.02C64.5781 122.758 64.7567 122.412 64.7567 121.984C64.7567 121.591 64.6317 121.269 64.3816 121.019C64.1315 120.769 63.667 120.543 62.9881 120.34L62.2378 120.108C61.5113 119.893 60.9397 119.56 60.5228 119.107C60.106 118.655 59.8976 118.101 59.8976 117.446C59.8976 116.66 60.2072 115.993 60.8265 115.445C61.4458 114.897 62.3331 114.623 63.4884 114.623C63.9528 114.623 64.3875 114.677 64.7925 114.784C65.2093 114.879 65.6083 115.028 65.9894 115.231L65.8822 117.16H65.7036L65.0783 116.053C64.852 115.66 64.6257 115.386 64.3994 115.231C64.1851 115.064 63.8576 114.981 63.4169 114.981C63.012 114.981 62.6309 115.094 62.2736 115.32C61.9163 115.546 61.7376 115.868 61.7376 116.285C61.7376 116.69 61.8865 117.011 62.1842 117.25C62.4939 117.488 62.9465 117.708 63.5419 117.911L64.3459 118.143C65.2034 118.405 65.8167 118.768 66.1859 119.232C66.5551 119.685 66.7397 120.233 66.7397 120.876C66.7397 121.745 66.3943 122.442 65.7036 122.966C65.0247 123.49 64.066 123.752 62.8274 123.752ZM72.216 123.752C71.3109 123.752 70.5249 123.568 69.8579 123.198C69.191 122.817 68.6729 122.281 68.3037 121.591C67.9464 120.9 67.7678 120.09 67.7678 119.161C67.7678 118.232 67.9583 117.428 68.3394 116.749C68.7324 116.07 69.2624 115.546 69.9294 115.177C70.6082 114.808 71.3705 114.623 72.216 114.623C73.0616 114.623 73.8179 114.808 74.4848 115.177C75.1518 115.535 75.6758 116.053 76.0569 116.731C76.45 117.41 76.6465 118.22 76.6465 119.161C76.6465 120.102 76.4619 120.918 76.0927 121.608C75.7354 122.287 75.2232 122.817 74.5563 123.198C73.9013 123.568 73.1212 123.752 72.216 123.752ZM72.216 123.395C72.6329 123.395 72.9664 123.276 73.2165 123.038C73.4666 122.799 73.6452 122.377 73.7524 121.769C73.8715 121.162 73.931 120.304 73.931 119.197C73.931 118.077 73.8715 117.214 73.7524 116.606C73.6452 115.999 73.4666 115.576 73.2165 115.338C72.9664 115.1 72.6329 114.981 72.216 114.981C71.7992 114.981 71.4598 115.1 71.1978 115.338C70.9477 115.576 70.7631 115.999 70.644 116.606C70.5368 117.214 70.4832 118.077 70.4832 119.197C70.4832 120.304 70.5368 121.162 70.644 121.769C70.7631 122.377 70.9477 122.799 71.1978 123.038C71.4598 123.276 71.7992 123.395 72.216 123.395ZM77.6097 123.484V123.306L77.8777 123.234C78.1159 123.163 78.2767 123.056 78.3601 122.913C78.4553 122.77 78.503 122.585 78.503 122.359V116.767C78.503 116.505 78.4553 116.315 78.3601 116.196C78.2767 116.064 78.1159 115.975 77.8777 115.928L77.6097 115.856V115.677L80.6825 114.641L80.8611 114.82L81.0219 116.356V116.499C81.1886 116.166 81.403 115.862 81.665 115.588C81.9389 115.302 82.2367 115.07 82.5582 114.891C82.8917 114.713 83.2192 114.623 83.5408 114.623C83.9934 114.623 84.3387 114.748 84.5769 114.999C84.8151 115.249 84.9342 115.564 84.9342 115.945C84.9342 116.35 84.8151 116.666 84.5769 116.892C84.3507 117.107 84.0767 117.214 83.7552 117.214C83.255 117.214 82.8143 116.964 82.4332 116.463L82.3975 116.428C82.2784 116.261 82.1414 116.172 81.9866 116.16C81.8317 116.136 81.6888 116.207 81.5578 116.374C81.4387 116.481 81.3375 116.612 81.2541 116.767C81.1827 116.91 81.1112 117.077 81.0397 117.267V122.252C81.0397 122.728 81.2482 123.026 81.665 123.145L82.2367 123.306V123.484H77.6097ZM85.6739 123.484V123.306L85.9419 123.234C86.1801 123.163 86.3409 123.056 86.4242 122.913C86.5195 122.77 86.5672 122.585 86.5672 122.359V116.767C86.5672 116.505 86.5195 116.315 86.4242 116.196C86.3409 116.064 86.1801 115.975 85.9419 115.928L85.6739 115.856V115.677L88.7466 114.641L88.9253 114.82L89.0861 116.356V116.499C89.2528 116.166 89.4672 115.862 89.7292 115.588C90.0031 115.302 90.3009 115.07 90.6224 114.891C90.9559 114.713 91.2834 114.623 91.605 114.623C92.0575 114.623 92.4029 114.748 92.6411 114.999C92.8793 115.249 92.9984 115.564 92.9984 115.945C92.9984 116.35 92.8793 116.666 92.6411 116.892C92.4148 117.107 92.1409 117.214 91.8194 117.214C91.3191 117.214 90.8785 116.964 90.4974 116.463L90.4616 116.428C90.3425 116.261 90.2056 116.172 90.0508 116.16C89.8959 116.136 89.753 116.207 89.622 116.374C89.5029 116.481 89.4017 116.612 89.3183 116.767C89.2469 116.91 89.1754 117.077 89.1039 117.267V122.252C89.1039 122.728 89.3124 123.026 89.7292 123.145L90.3009 123.306V123.484H85.6739ZM95.6608 127.772C95.1844 127.772 94.8033 127.653 94.5175 127.414C94.2435 127.176 94.1066 126.873 94.1066 126.503C94.1066 126.17 94.2257 125.902 94.4639 125.699C94.7021 125.497 94.97 125.396 95.2678 125.396C95.5655 125.396 95.8156 125.455 96.0181 125.574C96.2205 125.705 96.3992 125.89 96.554 126.128L96.6791 126.271C96.9411 126.628 97.2031 126.622 97.4651 126.253C97.5723 126.075 97.6914 125.836 97.8224 125.539C97.9653 125.253 98.1261 124.866 98.3048 124.377L94.839 116.088C94.7557 115.862 94.6663 115.683 94.5711 115.552C94.4758 115.409 94.3209 115.29 94.1066 115.195L93.785 115.07V114.891H98.2333V115.052L97.876 115.195C97.614 115.278 97.477 115.415 97.4651 115.606C97.4651 115.785 97.5128 116.011 97.608 116.285L99.4659 121.108L101.235 116.231C101.33 115.957 101.366 115.731 101.342 115.552C101.318 115.362 101.169 115.231 100.895 115.159L100.52 115.07V114.891H103.003V115.07L102.61 115.195C102.336 115.278 102.146 115.398 102.038 115.552C101.931 115.707 101.83 115.922 101.735 116.196L98.8586 124.038C98.3941 125.289 97.9296 126.223 97.4651 126.843C97.0006 127.462 96.3992 127.772 95.6608 127.772ZM103.174 126.325L103.066 126.075C103.471 125.825 103.775 125.521 103.978 125.164C104.192 124.818 104.341 124.383 104.424 123.859L103.835 123.609C103.489 123.443 103.221 123.228 103.031 122.966C102.852 122.692 102.763 122.418 102.763 122.144C102.763 121.728 102.9 121.382 103.174 121.108C103.448 120.822 103.805 120.68 104.246 120.68C104.698 120.68 105.061 120.84 105.335 121.162C105.621 121.472 105.764 121.924 105.764 122.52C105.764 123.175 105.627 123.758 105.353 124.27C105.091 124.794 104.764 125.229 104.371 125.574C103.978 125.932 103.579 126.182 103.174 126.325ZM114.635 123.716L111.616 123.484V123.306L111.795 123.27C112.259 123.163 112.491 122.865 112.491 122.377V112.819C112.491 112.569 112.45 112.378 112.366 112.247C112.295 112.116 112.14 112.027 111.902 111.979L111.652 111.908V111.729L114.832 110.961L115.046 111.122L114.975 113.641V115.445C115.368 115.171 115.796 114.969 116.261 114.838C116.725 114.695 117.196 114.623 117.672 114.623C118.351 114.623 118.952 114.784 119.477 115.106C120.001 115.415 120.411 115.904 120.709 116.571C121.019 117.226 121.174 118.071 121.174 119.107C121.174 120.144 121.001 121.007 120.656 121.698C120.322 122.377 119.87 122.889 119.298 123.234C118.738 123.58 118.119 123.752 117.44 123.752C116.999 123.752 116.553 123.693 116.1 123.574C115.659 123.454 115.266 123.288 114.921 123.073L114.635 123.716ZM116.547 123.145C116.928 123.145 117.261 123.026 117.547 122.788C117.833 122.549 118.059 122.144 118.226 121.573C118.393 120.989 118.476 120.191 118.476 119.179C118.476 118.167 118.399 117.386 118.244 116.839C118.089 116.291 117.869 115.91 117.583 115.695C117.309 115.481 116.975 115.374 116.582 115.374C116.023 115.374 115.505 115.529 115.028 115.838V122.698C115.255 122.841 115.487 122.954 115.725 123.038C115.963 123.109 116.237 123.145 116.547 123.145ZM125.303 123.752C124.839 123.752 124.41 123.663 124.017 123.484C123.636 123.306 123.332 123.02 123.106 122.627C122.891 122.222 122.79 121.692 122.802 121.037L122.856 116.446C122.856 116.172 122.808 115.975 122.713 115.856C122.617 115.737 122.469 115.654 122.266 115.606L122.052 115.535V115.356L125.249 114.731L125.428 114.909L125.339 117.446V121.751C125.339 122.132 125.446 122.412 125.66 122.591C125.887 122.77 126.166 122.859 126.5 122.859C126.833 122.859 127.131 122.811 127.393 122.716C127.655 122.621 127.917 122.478 128.179 122.287L128.251 116.463C128.251 116.19 128.209 115.999 128.126 115.892C128.042 115.773 127.887 115.689 127.661 115.642L127.483 115.588V115.409L130.609 114.731L130.787 114.909L130.734 117.446V122.287C130.734 122.549 130.77 122.752 130.841 122.895C130.913 123.038 131.067 123.157 131.306 123.252L131.484 123.306V123.484L128.358 123.663L128.197 122.609C127.804 122.93 127.375 123.204 126.911 123.431C126.458 123.645 125.922 123.752 125.303 123.752ZM135.779 123.752C135.016 123.752 134.421 123.562 133.992 123.181C133.575 122.799 133.367 122.192 133.367 121.358V115.249H132.134V115.07L132.563 114.999C132.932 114.915 133.248 114.796 133.51 114.641C133.784 114.486 134.052 114.278 134.314 114.016L135.779 112.39H135.957L135.904 114.891H137.904V115.249H135.886V121.68C135.886 122.097 135.975 122.412 136.154 122.627C136.344 122.841 136.582 122.948 136.868 122.948C137.118 122.948 137.339 122.889 137.529 122.77C137.72 122.639 137.91 122.466 138.101 122.252L138.28 122.43C138.041 122.835 137.714 123.157 137.297 123.395C136.88 123.633 136.374 123.752 135.779 123.752ZM146.481 123.752C145.719 123.752 145.123 123.562 144.695 123.181C144.278 122.799 144.069 122.192 144.069 121.358V115.249H142.837V115.07L143.266 114.999C143.635 114.915 143.95 114.796 144.212 114.641C144.486 114.486 144.754 114.278 145.016 114.016L146.481 112.39H146.66L146.606 114.891H148.607V115.249H146.588V121.68C146.588 122.097 146.678 122.412 146.856 122.627C147.047 122.841 147.285 122.948 147.571 122.948C147.821 122.948 148.041 122.889 148.232 122.77C148.422 122.639 148.613 122.466 148.804 122.252L148.982 122.43C148.744 122.835 148.417 123.157 148 123.395C147.583 123.633 147.077 123.752 146.481 123.752ZM149.774 123.484V123.306L149.989 123.234C150.417 123.091 150.632 122.793 150.632 122.341V112.801C150.632 112.551 150.59 112.367 150.507 112.247C150.423 112.128 150.262 112.039 150.024 111.979L149.756 111.908V111.729L152.9 110.961L153.186 111.122L153.115 113.641V115.874C153.532 115.529 153.978 115.237 154.455 114.999C154.943 114.748 155.479 114.623 156.062 114.623C156.837 114.623 157.45 114.844 157.903 115.284C158.367 115.725 158.599 116.404 158.599 117.321V122.359C158.599 122.597 158.647 122.788 158.742 122.93C158.837 123.073 159.004 123.181 159.242 123.252L159.385 123.306V123.484H155.205V123.306L155.419 123.252C155.848 123.109 156.062 122.805 156.062 122.341V116.731C156.062 116.255 155.979 115.928 155.812 115.749C155.658 115.57 155.378 115.481 154.973 115.481C154.711 115.481 154.425 115.535 154.115 115.642C153.806 115.737 153.49 115.91 153.168 116.16V122.377C153.168 122.841 153.383 123.139 153.812 123.27L153.954 123.306V123.484H149.774ZM164.746 114.623C165.52 114.623 166.181 114.784 166.729 115.106C167.277 115.415 167.694 115.844 167.98 116.392C168.277 116.928 168.426 117.541 168.426 118.232C168.426 118.363 168.42 118.5 168.408 118.643C168.396 118.774 168.373 118.893 168.337 119H163.013C163.025 120.286 163.251 121.215 163.692 121.787C164.145 122.347 164.812 122.627 165.693 122.627C166.288 122.627 166.771 122.531 167.14 122.341C167.509 122.15 167.855 121.87 168.176 121.501L168.355 121.662C167.986 122.317 167.491 122.829 166.872 123.198C166.265 123.568 165.532 123.752 164.675 123.752C163.829 123.752 163.079 123.574 162.424 123.216C161.769 122.847 161.257 122.323 160.887 121.644C160.518 120.965 160.334 120.155 160.334 119.215C160.334 118.238 160.548 117.41 160.977 116.731C161.405 116.041 161.953 115.517 162.62 115.159C163.299 114.802 164.008 114.623 164.746 114.623ZM164.692 114.981C164.347 114.981 164.049 115.088 163.799 115.302C163.561 115.505 163.37 115.874 163.228 116.41C163.097 116.934 163.025 117.678 163.013 118.643H166.068C166.187 117.345 166.14 116.41 165.925 115.838C165.711 115.267 165.3 114.981 164.692 114.981ZM173.564 127.593V127.414L173.779 127.343C174.219 127.224 174.44 126.938 174.44 126.486V116.767C174.44 116.505 174.392 116.309 174.297 116.178C174.213 116.047 174.052 115.957 173.814 115.91L173.564 115.856V115.677L176.601 114.641L176.78 114.82L176.941 115.374C177.334 115.136 177.768 114.951 178.245 114.82C178.733 114.689 179.233 114.623 179.745 114.623C180.77 114.623 181.579 115.016 182.175 115.802C182.782 116.577 183.086 117.69 183.086 119.143C183.086 120.572 182.753 121.698 182.086 122.52C181.431 123.341 180.502 123.752 179.299 123.752C178.358 123.752 177.566 123.615 176.923 123.341V126.432C176.923 126.908 177.137 127.206 177.566 127.325L177.905 127.414V127.593H173.564ZM178.441 123.234C179.037 123.234 179.507 122.924 179.853 122.305C180.21 121.686 180.388 120.656 180.388 119.215C180.388 117.774 180.222 116.767 179.888 116.196C179.555 115.612 179.072 115.32 178.441 115.32C178.001 115.32 177.512 115.463 176.976 115.749V122.948C177.429 123.139 177.917 123.234 178.441 123.234ZM186.574 123.752C185.884 123.752 185.3 123.556 184.824 123.163C184.359 122.77 184.127 122.204 184.127 121.466C184.127 120.906 184.413 120.394 184.984 119.929C185.556 119.453 186.455 119.096 187.682 118.857C187.873 118.822 188.087 118.786 188.325 118.75C188.563 118.702 188.813 118.655 189.075 118.607V117.196C189.075 116.386 188.974 115.82 188.772 115.499C188.581 115.165 188.277 114.999 187.861 114.999C187.575 114.999 187.348 115.094 187.182 115.284C187.015 115.463 186.908 115.779 186.86 116.231L186.824 116.428C186.801 116.94 186.676 117.315 186.449 117.553C186.223 117.791 185.943 117.911 185.61 117.911C185.3 117.911 185.044 117.815 184.841 117.625C184.639 117.434 184.538 117.178 184.538 116.856C184.538 116.368 184.705 115.957 185.038 115.624C185.383 115.29 185.836 115.04 186.396 114.874C186.955 114.707 187.563 114.623 188.218 114.623C189.278 114.623 190.094 114.885 190.665 115.409C191.249 115.922 191.541 116.761 191.541 117.928V121.876C191.541 122.412 191.791 122.68 192.291 122.68H192.684L192.845 122.823C192.619 123.109 192.368 123.329 192.095 123.484C191.833 123.639 191.457 123.716 190.969 123.716C190.445 123.716 190.028 123.597 189.719 123.359C189.421 123.109 189.224 122.782 189.129 122.377C188.772 122.758 188.403 123.085 188.021 123.359C187.652 123.621 187.17 123.752 186.574 123.752ZM187.664 122.662C187.902 122.662 188.123 122.609 188.325 122.502C188.539 122.383 188.79 122.204 189.075 121.966V118.965C188.956 118.988 188.837 119.012 188.718 119.036C188.599 119.06 188.462 119.084 188.307 119.107C187.759 119.25 187.319 119.494 186.985 119.84C186.664 120.173 186.503 120.626 186.503 121.198C186.503 121.686 186.616 122.055 186.842 122.305C187.069 122.543 187.343 122.662 187.664 122.662ZM197.163 120.394C196.342 120.394 195.645 120.257 195.073 119.983V120.59C195.073 120.959 195.258 121.18 195.627 121.251L198.986 121.876C199.545 121.984 200.052 122.127 200.504 122.305C200.957 122.472 201.32 122.716 201.594 123.038C201.868 123.347 202.005 123.776 202.005 124.324C202.005 124.907 201.814 125.443 201.433 125.932C201.052 126.432 200.486 126.831 199.736 127.129C198.998 127.438 198.075 127.593 196.967 127.593C196.014 127.593 195.258 127.492 194.698 127.289C194.138 127.099 193.739 126.849 193.501 126.539C193.275 126.229 193.162 125.902 193.162 125.557C193.162 125.128 193.305 124.693 193.591 124.252C193.888 123.824 194.252 123.478 194.68 123.216C194.311 123.073 194.043 122.889 193.876 122.662C193.71 122.436 193.626 122.192 193.626 121.93C193.626 121.692 193.686 121.472 193.805 121.269C193.936 121.055 194.091 120.84 194.269 120.626L194.859 119.876C193.99 119.375 193.555 118.589 193.555 117.517C193.555 116.66 193.859 115.963 194.466 115.427C195.085 114.891 195.99 114.623 197.181 114.623C197.789 114.623 198.319 114.695 198.771 114.838C199.236 114.981 199.617 115.183 199.915 115.445C200.296 115.386 200.653 115.29 200.986 115.159C201.332 115.016 201.642 114.826 201.915 114.588L202.166 114.766V115.677H200.147C200.576 116.154 200.79 116.767 200.79 117.517C200.79 118.351 200.48 119.042 199.861 119.59C199.254 120.126 198.354 120.394 197.163 120.394ZM197.146 120.036C197.622 120.036 197.967 119.84 198.182 119.447C198.408 119.054 198.521 118.399 198.521 117.482C198.521 116.565 198.408 115.922 198.182 115.552C197.967 115.171 197.634 114.981 197.181 114.981C196.741 114.981 196.407 115.177 196.181 115.57C195.955 115.951 195.841 116.6 195.841 117.517C195.841 118.435 195.943 119.084 196.145 119.465C196.36 119.846 196.693 120.036 197.146 120.036ZM194.484 124.985C194.484 125.688 194.698 126.218 195.127 126.575C195.568 126.932 196.258 127.111 197.199 127.111C198.188 127.111 198.932 126.95 199.432 126.628C199.932 126.307 200.183 125.854 200.183 125.271C200.183 124.937 200.058 124.669 199.807 124.467C199.569 124.264 199.158 124.11 198.575 124.002L195.341 123.395C195.246 123.371 195.151 123.347 195.055 123.323C194.889 123.562 194.752 123.83 194.645 124.127C194.537 124.437 194.484 124.723 194.484 124.985ZM207.143 114.623C207.917 114.623 208.578 114.784 209.126 115.106C209.674 115.415 210.091 115.844 210.377 116.392C210.674 116.928 210.823 117.541 210.823 118.232C210.823 118.363 210.817 118.5 210.805 118.643C210.793 118.774 210.77 118.893 210.734 119H205.41C205.422 120.286 205.648 121.215 206.089 121.787C206.542 122.347 207.209 122.627 208.09 122.627C208.685 122.627 209.168 122.531 209.537 122.341C209.906 122.15 210.251 121.87 210.573 121.501L210.752 121.662C210.383 122.317 209.888 122.829 209.269 123.198C208.662 123.568 207.929 123.752 207.072 123.752C206.226 123.752 205.476 123.574 204.821 123.216C204.166 122.847 203.654 122.323 203.284 121.644C202.915 120.965 202.731 120.155 202.731 119.215C202.731 118.238 202.945 117.41 203.374 116.731C203.802 116.041 204.35 115.517 205.017 115.159C205.696 114.802 206.405 114.623 207.143 114.623ZM207.089 114.981C206.744 114.981 206.446 115.088 206.196 115.302C205.958 115.505 205.767 115.874 205.625 116.41C205.494 116.934 205.422 117.678 205.41 118.643H208.465C208.584 117.345 208.536 116.41 208.322 115.838C208.108 115.267 207.697 114.981 207.089 114.981ZM224.426 127.772C223.95 127.772 223.569 127.653 223.283 127.414C223.009 127.176 222.872 126.873 222.872 126.503C222.872 126.17 222.991 125.902 223.229 125.699C223.467 125.497 223.735 125.396 224.033 125.396C224.331 125.396 224.581 125.455 224.783 125.574C224.986 125.705 225.164 125.89 225.319 126.128L225.444 126.271C225.706 126.628 225.968 126.622 226.23 126.253C226.338 126.075 226.457 125.836 226.588 125.539C226.731 125.253 226.891 124.866 227.07 124.377L223.604 116.088C223.521 115.862 223.432 115.683 223.336 115.552C223.241 115.409 223.086 115.29 222.872 115.195L222.55 115.07V114.891H226.999V115.052L226.641 115.195C226.379 115.278 226.242 115.415 226.23 115.606C226.23 115.785 226.278 116.011 226.373 116.285L228.231 121.108L230 116.231C230.095 115.957 230.131 115.731 230.107 115.552C230.083 115.362 229.934 115.231 229.66 115.159L229.285 115.07V114.891H231.768V115.07L231.375 115.195C231.101 115.278 230.911 115.398 230.804 115.552C230.697 115.707 230.595 115.922 230.5 116.196L227.624 124.038C227.159 125.289 226.695 126.223 226.23 126.843C225.766 127.462 225.164 127.772 224.426 127.772ZM236.588 123.752C235.683 123.752 234.896 123.568 234.23 123.198C233.563 122.817 233.045 122.281 232.675 121.591C232.318 120.9 232.139 120.09 232.139 119.161C232.139 118.232 232.33 117.428 232.711 116.749C233.104 116.07 233.634 115.546 234.301 115.177C234.98 114.808 235.742 114.623 236.588 114.623C237.433 114.623 238.19 114.808 238.856 115.177C239.523 115.535 240.047 116.053 240.429 116.731C240.822 117.41 241.018 118.22 241.018 119.161C241.018 120.102 240.833 120.918 240.464 121.608C240.107 122.287 239.595 122.817 238.928 123.198C238.273 123.568 237.493 123.752 236.588 123.752ZM236.588 123.395C237.005 123.395 237.338 123.276 237.588 123.038C237.838 122.799 238.017 122.377 238.124 121.769C238.243 121.162 238.303 120.304 238.303 119.197C238.303 118.077 238.243 117.214 238.124 116.606C238.017 115.999 237.838 115.576 237.588 115.338C237.338 115.1 237.005 114.981 236.588 114.981C236.171 114.981 235.831 115.1 235.569 115.338C235.319 115.576 235.135 115.999 235.016 116.606C234.908 117.214 234.855 118.077 234.855 119.197C234.855 120.304 234.908 121.162 235.016 121.769C235.135 122.377 235.319 122.799 235.569 123.038C235.831 123.276 236.171 123.395 236.588 123.395ZM245.145 123.752C244.681 123.752 244.252 123.663 243.859 123.484C243.478 123.306 243.174 123.02 242.948 122.627C242.733 122.222 242.632 121.692 242.644 121.037L242.698 116.446C242.698 116.172 242.65 115.975 242.555 115.856C242.459 115.737 242.311 115.654 242.108 115.606L241.894 115.535V115.356L245.091 114.731L245.27 114.909L245.181 117.446V121.751C245.181 122.132 245.288 122.412 245.502 122.591C245.729 122.77 246.009 122.859 246.342 122.859C246.675 122.859 246.973 122.811 247.235 122.716C247.497 122.621 247.759 122.478 248.021 122.287L248.093 116.463C248.093 116.19 248.051 115.999 247.968 115.892C247.884 115.773 247.729 115.689 247.503 115.642L247.325 115.588V115.409L250.451 114.731L250.629 114.909L250.576 117.446V122.287C250.576 122.549 250.612 122.752 250.683 122.895C250.755 123.038 250.909 123.157 251.148 123.252L251.326 123.306V123.484L248.2 123.663L248.039 122.609C247.646 122.93 247.217 123.204 246.753 123.431C246.3 123.645 245.764 123.752 245.145 123.752ZM1.03698 150.484V150.306L1.30495 150.234C1.54314 150.163 1.70392 150.056 1.78729 149.913C1.88257 149.77 1.93021 149.585 1.93021 149.359V143.767C1.93021 143.505 1.88257 143.315 1.78729 143.196C1.70392 143.064 1.54314 142.975 1.30495 142.928L1.03698 142.856V142.677L4.10969 141.641L4.28833 141.82L4.44911 143.356V143.499C4.61585 143.166 4.83023 142.862 5.09224 142.588C5.36616 142.302 5.66391 142.07 5.98547 141.891C6.31894 141.713 6.64646 141.623 6.96802 141.623C7.42059 141.623 7.76597 141.748 8.00417 141.999C8.24236 142.249 8.36146 142.564 8.36146 142.945C8.36146 143.35 8.24236 143.666 8.00417 143.892C7.77788 144.107 7.50396 144.214 7.1824 144.214C6.68219 144.214 6.24153 143.964 5.86042 143.463L5.82469 143.428C5.70559 143.261 5.56863 143.172 5.4138 143.16C5.25898 143.136 5.11606 143.207 4.98505 143.374C4.86596 143.481 4.76472 143.612 4.68135 143.767C4.6099 143.91 4.53844 144.077 4.46698 144.267V149.252C4.46698 149.728 4.6754 150.026 5.09224 150.145L5.66391 150.306V150.484H1.03698ZM13.306 141.623C14.0802 141.623 14.7412 141.784 15.289 142.106C15.8369 142.415 16.2537 142.844 16.5395 143.392C16.8373 143.928 16.9861 144.541 16.9861 145.232C16.9861 145.363 16.9802 145.5 16.9683 145.643C16.9564 145.774 16.9326 145.893 16.8968 146H11.5732C11.5851 147.286 11.8114 148.215 12.252 148.787C12.7046 149.347 13.3715 149.627 14.2529 149.627C14.8483 149.627 15.3307 149.531 15.6999 149.341C16.0691 149.15 16.4145 148.87 16.736 148.501L16.9147 148.662C16.5455 149.317 16.0512 149.829 15.4319 150.198C14.8245 150.568 14.0921 150.752 13.2346 150.752C12.389 150.752 11.6387 150.574 10.9836 150.216C10.3286 149.847 9.81649 149.323 9.44729 148.644C9.07809 147.965 8.89349 147.155 8.89349 146.215C8.89349 145.238 9.10786 144.41 9.53661 143.731C9.96536 143.041 10.5132 142.517 11.1802 142.159C11.859 141.802 12.5676 141.623 13.306 141.623ZM13.2524 141.981C12.9071 141.981 12.6093 142.088 12.3592 142.302C12.121 142.505 11.9305 142.874 11.7876 143.41C11.6565 143.934 11.5851 144.678 11.5732 145.643H14.628C14.7471 144.345 14.6995 143.41 14.4851 142.838C14.2707 142.267 13.8598 141.981 13.2524 141.981ZM23.2715 154.593V154.414L23.6467 154.325C24.0993 154.194 24.3256 153.896 24.3256 153.432V149.877C23.9802 150.139 23.5812 150.347 23.1286 150.502C22.688 150.669 22.1937 150.752 21.6459 150.752C20.6335 150.752 19.7939 150.371 19.127 149.609C18.46 148.847 18.1265 147.739 18.1265 146.286C18.1265 145.286 18.2933 144.44 18.6268 143.749C18.9602 143.059 19.4188 142.535 20.0023 142.177C20.5978 141.808 21.2826 141.623 22.0568 141.623C22.5808 141.623 23.0572 141.701 23.4859 141.856C23.9266 142.01 24.3136 142.207 24.6471 142.445L26.6837 141.623L26.8623 141.802L26.8087 144.214V153.486C26.8087 153.974 27.0231 154.266 27.4519 154.361L27.6126 154.414V154.593H23.2715ZM22.8249 150.038C23.3251 150.038 23.8075 149.847 24.272 149.466V142.677C24.0695 142.546 23.8611 142.451 23.6467 142.392C23.4323 142.332 23.1763 142.302 22.8785 142.302C22.2473 142.302 21.7471 142.612 21.3779 143.231C21.0087 143.839 20.8241 144.845 20.8241 146.25C20.8241 147.62 21.0027 148.597 21.36 149.18C21.7173 149.752 22.2056 150.038 22.8249 150.038ZM31.5161 150.752C31.0516 150.752 30.6228 150.663 30.2298 150.484C29.8487 150.306 29.545 150.02 29.3187 149.627C29.1043 149.222 29.0031 148.692 29.015 148.037L29.0686 143.446C29.0686 143.172 29.021 142.975 28.9257 142.856C28.8304 142.737 28.6815 142.654 28.4791 142.606L28.2647 142.535V142.356L31.4625 141.731L31.6411 141.909L31.5518 144.446V148.751C31.5518 149.132 31.659 149.412 31.8733 149.591C32.0996 149.77 32.3795 149.859 32.713 149.859C33.0465 149.859 33.3442 149.811 33.6062 149.716C33.8682 149.621 34.1302 149.478 34.3922 149.287L34.4637 143.463C34.4637 143.19 34.422 142.999 34.3387 142.892C34.2553 142.773 34.1005 142.689 33.8742 142.642L33.6955 142.588V142.409L36.8218 141.731L37.0005 141.909L36.9469 144.446V149.287C36.9469 149.549 36.9826 149.752 37.0541 149.895C37.1255 150.038 37.2804 150.157 37.5186 150.252L37.6972 150.306V150.484L34.5709 150.663L34.4101 149.609C34.0171 149.93 33.5883 150.204 33.1239 150.431C32.6713 150.645 32.1354 150.752 31.5161 150.752ZM43.0115 141.623C43.7856 141.623 44.4466 141.784 44.9945 142.106C45.5423 142.415 45.9592 142.844 46.245 143.392C46.5427 143.928 46.6916 144.541 46.6916 145.232C46.6916 145.363 46.6856 145.5 46.6737 145.643C46.6618 145.774 46.638 145.893 46.6023 146H41.2786C41.2905 147.286 41.5168 148.215 41.9575 148.787C42.4101 149.347 43.077 149.627 43.9583 149.627C44.5538 149.627 45.0361 149.531 45.4053 149.341C45.7746 149.15 46.1199 148.87 46.4415 148.501L46.6201 148.662C46.2509 149.317 45.7567 149.829 45.1374 150.198C44.53 150.568 43.7975 150.752 42.94 150.752C42.0944 150.752 41.3441 150.574 40.6891 150.216C40.0341 149.847 39.5219 149.323 39.1527 148.644C38.7835 147.965 38.5989 147.155 38.5989 146.215C38.5989 145.238 38.8133 144.41 39.2421 143.731C39.6708 143.041 40.2187 142.517 40.8856 142.159C41.5645 141.802 42.2731 141.623 43.0115 141.623ZM42.9579 141.981C42.6125 141.981 42.3148 142.088 42.0647 142.302C41.8265 142.505 41.6359 142.874 41.493 143.41C41.362 143.934 41.2905 144.678 41.2786 145.643H44.3335C44.4526 144.345 44.4049 143.41 44.1906 142.838C43.9762 142.267 43.5653 141.981 42.9579 141.981ZM50.8511 150.752C50.2675 150.752 49.7435 150.681 49.279 150.538C48.8146 150.407 48.3858 150.24 47.9928 150.038L48.0106 147.912H48.1893L48.7967 148.984C49.0587 149.46 49.3445 149.817 49.6542 150.056C49.9758 150.282 50.3807 150.395 50.869 150.395C51.4406 150.395 51.8992 150.27 52.2446 150.02C52.6018 149.758 52.7805 149.412 52.7805 148.984C52.7805 148.591 52.6554 148.269 52.4053 148.019C52.1552 147.769 51.6908 147.543 51.0119 147.34L50.2616 147.108C49.5351 146.893 48.9634 146.56 48.5466 146.107C48.1297 145.655 47.9213 145.101 47.9213 144.446C47.9213 143.66 48.231 142.993 48.8503 142.445C49.4696 141.897 50.3569 141.623 51.5121 141.623C51.9766 141.623 52.4113 141.677 52.8162 141.784C53.2331 141.879 53.632 142.028 54.0131 142.231L53.906 144.16H53.7273L53.1021 143.053C52.8758 142.66 52.6495 142.386 52.4232 142.231C52.2088 142.064 51.8813 141.981 51.4406 141.981C51.0357 141.981 50.6546 142.094 50.2973 142.32C49.94 142.546 49.7614 142.868 49.7614 143.285C49.7614 143.69 49.9102 144.011 50.208 144.25C50.5176 144.488 50.9702 144.708 51.5657 144.911L52.3696 145.143C53.2271 145.405 53.8405 145.768 54.2097 146.232C54.5789 146.685 54.7635 147.233 54.7635 147.876C54.7635 148.745 54.4181 149.442 53.7273 149.966C53.0485 150.49 52.0897 150.752 50.8511 150.752ZM59.1143 150.752C58.3521 150.752 57.7566 150.562 57.3279 150.181C56.911 149.799 56.7026 149.192 56.7026 148.358V142.249H55.4699V142.07L55.8987 141.999C56.2679 141.915 56.5835 141.796 56.8455 141.641C57.1194 141.486 57.3874 141.278 57.6494 141.016L59.1143 139.39H59.293L59.2394 141.891H61.2402V142.249H59.2215V148.68C59.2215 149.097 59.3108 149.412 59.4895 149.627C59.68 149.841 59.9182 149.948 60.2041 149.948C60.4542 149.948 60.6745 149.889 60.8651 149.77C61.0556 149.639 61.2462 149.466 61.4367 149.252L61.6154 149.43C61.3772 149.835 61.0497 150.157 60.6328 150.395C60.216 150.633 59.7098 150.752 59.1143 150.752ZM66.7853 141.623C67.5595 141.623 68.2205 141.784 68.7683 142.106C69.3162 142.415 69.733 142.844 70.0188 143.392C70.3166 143.928 70.4655 144.541 70.4655 145.232C70.4655 145.363 70.4595 145.5 70.4476 145.643C70.4357 145.774 70.4119 145.893 70.3761 146H65.0525C65.0644 147.286 65.2907 148.215 65.7313 148.787C66.1839 149.347 66.8509 149.627 67.7322 149.627C68.3277 149.627 68.81 149.531 69.1792 149.341C69.5484 149.15 69.8938 148.87 70.2153 148.501L70.394 148.662C70.0248 149.317 69.5305 149.829 68.9112 150.198C68.3038 150.568 67.5714 150.752 66.7139 150.752C65.8683 150.752 65.118 150.574 64.463 150.216C63.8079 149.847 63.2958 149.323 62.9266 148.644C62.5574 147.965 62.3728 147.155 62.3728 146.215C62.3728 145.238 62.5872 144.41 63.0159 143.731C63.4447 143.041 63.9925 142.517 64.6595 142.159C65.3383 141.802 66.0469 141.623 66.7853 141.623ZM66.7318 141.981C66.3864 141.981 66.0886 142.088 65.8385 142.302C65.6003 142.505 65.4098 142.874 65.2669 143.41C65.1359 143.934 65.0644 144.678 65.0525 145.643H68.1073C68.2264 144.345 68.1788 143.41 67.9644 142.838C67.75 142.267 67.3392 141.981 66.7318 141.981ZM75.3217 150.752C74.619 150.752 73.9878 150.597 73.428 150.288C72.8683 149.966 72.4217 149.478 72.0882 148.823C71.7666 148.156 71.6059 147.304 71.6059 146.268C71.6059 145.22 71.7905 144.357 72.1597 143.678C72.5289 142.987 73.0172 142.475 73.6245 142.141C74.2319 141.796 74.8929 141.623 75.6075 141.623C76.0244 141.623 76.4233 141.665 76.8044 141.748C77.1856 141.832 77.525 141.957 77.8227 142.124V139.801C77.8227 139.551 77.781 139.367 77.6977 139.247C77.6262 139.128 77.4654 139.045 77.2153 138.997L76.8759 138.926V138.747L80.1273 137.961L80.3238 138.122L80.2523 140.623V149.359C80.2523 149.597 80.294 149.793 80.3774 149.948C80.4607 150.091 80.6156 150.192 80.8418 150.252L81.0026 150.306V150.484L77.9478 150.681L77.787 150.038C77.4654 150.252 77.0962 150.425 76.6794 150.556C76.2745 150.687 75.8219 150.752 75.3217 150.752ZM76.3578 150.091C76.858 150.091 77.3166 149.942 77.7334 149.645V142.552C77.2927 142.267 76.8402 142.124 76.3757 142.124C75.804 142.124 75.3157 142.457 74.9108 143.124C74.5059 143.779 74.3034 144.815 74.3034 146.232C74.3034 147.65 74.494 148.65 74.8751 149.234C75.2562 149.805 75.7504 150.091 76.3578 150.091ZM89.7025 150.538L86.9514 142.981C86.8204 142.6 86.5584 142.332 86.1654 142.177L85.8617 142.07V141.891H90.2385V142.07L89.9705 142.141C89.506 142.284 89.3512 142.57 89.506 142.999L91.1674 148.055L92.6502 144.124L92.3108 143.106C92.2274 142.844 92.1381 142.648 92.0428 142.517C91.9594 142.374 91.8463 142.272 91.7034 142.213L91.3997 142.07V141.891H95.0976V142.07L94.8475 142.177C94.6689 142.249 94.5617 142.344 94.526 142.463C94.4902 142.582 94.5141 142.761 94.5974 142.999L96.241 147.965L97.9381 143.035C98.1048 142.582 98.0155 142.296 97.6701 142.177L97.2771 142.07V141.891H99.4209V142.07L98.9921 142.195C98.7897 142.255 98.6408 142.35 98.5455 142.481C98.4621 142.6 98.3847 142.767 98.3133 142.981L95.7408 150.538H94.8297L92.8467 144.696L90.7387 150.538H89.7025ZM102.365 150.752C101.674 150.752 101.091 150.556 100.614 150.163C100.15 149.77 99.9177 149.204 99.9177 148.466C99.9177 147.906 100.204 147.394 100.775 146.929C101.347 146.453 102.246 146.096 103.473 145.857C103.663 145.822 103.878 145.786 104.116 145.75C104.354 145.702 104.604 145.655 104.866 145.607V144.196C104.866 143.386 104.765 142.82 104.563 142.499C104.372 142.165 104.068 141.999 103.651 141.999C103.366 141.999 103.139 142.094 102.973 142.284C102.806 142.463 102.699 142.779 102.651 143.231L102.615 143.428C102.591 143.94 102.466 144.315 102.24 144.553C102.014 144.791 101.734 144.911 101.4 144.911C101.091 144.911 100.835 144.815 100.632 144.625C100.43 144.434 100.329 144.178 100.329 143.856C100.329 143.368 100.495 142.957 100.829 142.624C101.174 142.29 101.627 142.04 102.187 141.874C102.746 141.707 103.354 141.623 104.009 141.623C105.069 141.623 105.885 141.885 106.456 142.409C107.04 142.922 107.332 143.761 107.332 144.928V148.876C107.332 149.412 107.582 149.68 108.082 149.68H108.475L108.636 149.823C108.409 150.109 108.159 150.329 107.885 150.484C107.623 150.639 107.248 150.716 106.76 150.716C106.236 150.716 105.819 150.597 105.509 150.359C105.212 150.109 105.015 149.782 104.92 149.377C104.563 149.758 104.193 150.085 103.812 150.359C103.443 150.621 102.961 150.752 102.365 150.752ZM103.455 149.662C103.693 149.662 103.913 149.609 104.116 149.502C104.33 149.383 104.58 149.204 104.866 148.966V145.965C104.747 145.988 104.628 146.012 104.509 146.036C104.39 146.06 104.253 146.084 104.098 146.107C103.55 146.25 103.11 146.494 102.776 146.84C102.455 147.173 102.294 147.626 102.294 148.198C102.294 148.686 102.407 149.055 102.633 149.305C102.859 149.543 103.133 149.662 103.455 149.662ZM112.272 150.752C111.689 150.752 111.165 150.681 110.7 150.538C110.236 150.407 109.807 150.24 109.414 150.038L109.432 147.912H109.611L110.218 148.984C110.48 149.46 110.766 149.817 111.076 150.056C111.397 150.282 111.802 150.395 112.29 150.395C112.862 150.395 113.321 150.27 113.666 150.02C114.023 149.758 114.202 149.412 114.202 148.984C114.202 148.591 114.077 148.269 113.827 148.019C113.577 147.769 113.112 147.543 112.433 147.34L111.683 147.108C110.956 146.893 110.385 146.56 109.968 146.107C109.551 145.655 109.343 145.101 109.343 144.446C109.343 143.66 109.652 142.993 110.272 142.445C110.891 141.897 111.778 141.623 112.933 141.623C113.398 141.623 113.833 141.677 114.238 141.784C114.654 141.879 115.053 142.028 115.435 142.231L115.327 144.16H115.149L114.523 143.053C114.297 142.66 114.071 142.386 113.845 142.231C113.63 142.064 113.303 141.981 112.862 141.981C112.457 141.981 112.076 142.094 111.719 142.32C111.361 142.546 111.183 142.868 111.183 143.285C111.183 143.69 111.332 144.011 111.629 144.25C111.939 144.488 112.392 144.708 112.987 144.911L113.791 145.143C114.648 145.405 115.262 145.768 115.631 146.232C116 146.685 116.185 147.233 116.185 147.876C116.185 148.745 115.839 149.442 115.149 149.966C114.47 150.49 113.511 150.752 112.272 150.752ZM121.211 150.484V150.306L121.461 150.234C121.877 150.115 122.086 149.823 122.086 149.359V143.767C122.086 143.505 122.044 143.315 121.961 143.196C121.877 143.064 121.717 142.975 121.478 142.928L121.211 142.856V142.677L124.265 141.641L124.444 141.82L124.587 142.892C125.004 142.523 125.474 142.219 125.998 141.981C126.522 141.743 127.04 141.623 127.552 141.623C128.338 141.623 128.94 141.838 129.357 142.267C129.786 142.695 130 143.35 130 144.232V149.377C130 149.841 130.226 150.133 130.679 150.252L130.84 150.306V150.484H126.623V150.306L126.856 150.234C127.273 150.103 127.481 149.811 127.481 149.359V143.66C127.481 142.898 127.1 142.517 126.338 142.517C125.814 142.517 125.242 142.779 124.623 143.303V149.377C124.623 149.841 124.831 150.133 125.248 150.252L125.409 150.306V150.484H121.211ZM136.237 150.752C135.332 150.752 134.546 150.568 133.879 150.198C133.212 149.817 132.694 149.281 132.325 148.591C131.967 147.9 131.789 147.09 131.789 146.161C131.789 145.232 131.979 144.428 132.36 143.749C132.753 143.07 133.283 142.546 133.95 142.177C134.629 141.808 135.391 141.623 136.237 141.623C137.082 141.623 137.839 141.808 138.506 142.177C139.173 142.535 139.697 143.053 140.078 143.731C140.471 144.41 140.667 145.22 140.667 146.161C140.667 147.102 140.483 147.918 140.113 148.608C139.756 149.287 139.244 149.817 138.577 150.198C137.922 150.568 137.142 150.752 136.237 150.752ZM136.237 150.395C136.654 150.395 136.987 150.276 137.237 150.038C137.487 149.799 137.666 149.377 137.773 148.769C137.892 148.162 137.952 147.304 137.952 146.197C137.952 145.077 137.892 144.214 137.773 143.606C137.666 142.999 137.487 142.576 137.237 142.338C136.987 142.1 136.654 141.981 136.237 141.981C135.82 141.981 135.481 142.1 135.219 142.338C134.968 142.576 134.784 142.999 134.665 143.606C134.558 144.214 134.504 145.077 134.504 146.197C134.504 147.304 134.558 148.162 134.665 148.769C134.784 149.377 134.968 149.799 135.219 150.038C135.481 150.276 135.82 150.395 136.237 150.395ZM144.955 150.752C144.193 150.752 143.597 150.562 143.169 150.181C142.752 149.799 142.543 149.192 142.543 148.358V142.249H141.311V142.07L141.739 141.999C142.109 141.915 142.424 141.796 142.686 141.641C142.96 141.486 143.228 141.278 143.49 141.016L144.955 139.39H145.134L145.08 141.891H147.081V142.249H145.062V148.68C145.062 149.097 145.152 149.412 145.33 149.627C145.521 149.841 145.759 149.948 146.045 149.948C146.295 149.948 146.515 149.889 146.706 149.77C146.896 149.639 147.087 149.466 147.277 149.252L147.456 149.43C147.218 149.835 146.89 150.157 146.474 150.395C146.057 150.633 145.551 150.752 144.955 150.752ZM152.299 150.484V150.306L152.531 150.252C152.758 150.192 152.936 150.091 153.067 149.948C153.198 149.793 153.264 149.597 153.264 149.359C153.264 148.918 153.264 148.483 153.264 148.055C153.276 147.614 153.282 147.173 153.282 146.733V142.249H152.281V142.052L152.674 141.981C152.913 141.957 153.085 141.874 153.192 141.731C153.3 141.588 153.377 141.391 153.425 141.141C153.544 140.677 153.716 140.272 153.943 139.926C154.181 139.569 154.449 139.241 154.747 138.944C155.199 138.515 155.676 138.217 156.176 138.051C156.688 137.872 157.188 137.783 157.676 137.783C158.153 137.783 158.588 137.884 158.981 138.086C159.374 138.277 159.57 138.598 159.57 139.051C159.57 139.372 159.475 139.629 159.284 139.819C159.094 139.998 158.826 140.087 158.48 140.087C158.195 140.087 157.932 140.01 157.694 139.855C157.456 139.7 157.224 139.426 156.998 139.033L156.747 138.729C156.616 138.563 156.485 138.485 156.354 138.497C156.223 138.497 156.128 138.592 156.069 138.783C155.985 139.2 155.92 139.688 155.872 140.248C155.836 140.808 155.819 141.355 155.819 141.891H157.819V142.249H155.819V149.323C155.819 149.776 156.057 150.067 156.533 150.198L156.98 150.306V150.484H152.299ZM162.876 150.752C161.971 150.752 161.185 150.568 160.518 150.198C159.851 149.817 159.333 149.281 158.964 148.591C158.606 147.9 158.428 147.09 158.428 146.161C158.428 145.232 158.618 144.428 158.999 143.749C159.392 143.07 159.922 142.546 160.589 142.177C161.268 141.808 162.03 141.623 162.876 141.623C163.722 141.623 164.478 141.808 165.145 142.177C165.812 142.535 166.336 143.053 166.717 143.731C167.11 144.41 167.306 145.22 167.306 146.161C167.306 147.102 167.122 147.918 166.753 148.608C166.395 149.287 165.883 149.817 165.216 150.198C164.561 150.568 163.781 150.752 162.876 150.752ZM162.876 150.395C163.293 150.395 163.626 150.276 163.876 150.038C164.127 149.799 164.305 149.377 164.412 148.769C164.531 148.162 164.591 147.304 164.591 146.197C164.591 145.077 164.531 144.214 164.412 143.606C164.305 142.999 164.127 142.576 163.876 142.338C163.626 142.1 163.293 141.981 162.876 141.981C162.459 141.981 162.12 142.1 161.858 142.338C161.608 142.576 161.423 142.999 161.304 143.606C161.197 144.214 161.143 145.077 161.143 146.197C161.143 147.304 161.197 148.162 161.304 148.769C161.423 149.377 161.608 149.799 161.858 150.038C162.12 150.276 162.459 150.395 162.876 150.395ZM171.433 150.752C170.969 150.752 170.54 150.663 170.147 150.484C169.766 150.306 169.462 150.02 169.236 149.627C169.022 149.222 168.92 148.692 168.932 148.037L168.986 143.446C168.986 143.172 168.938 142.975 168.843 142.856C168.748 142.737 168.599 142.654 168.396 142.606L168.182 142.535V142.356L171.38 141.731L171.558 141.909L171.469 144.446V148.751C171.469 149.132 171.576 149.412 171.791 149.591C172.017 149.77 172.297 149.859 172.63 149.859C172.964 149.859 173.262 149.811 173.524 149.716C173.786 149.621 174.048 149.478 174.31 149.287L174.381 143.463C174.381 143.19 174.339 142.999 174.256 142.892C174.173 142.773 174.018 142.689 173.792 142.642L173.613 142.588V142.409L176.739 141.731L176.918 141.909L176.864 144.446V149.287C176.864 149.549 176.9 149.752 176.971 149.895C177.043 150.038 177.198 150.157 177.436 150.252L177.615 150.306V150.484L174.488 150.663L174.327 149.609C173.934 149.93 173.506 150.204 173.041 150.431C172.589 150.645 172.053 150.752 171.433 150.752ZM178.515 150.484V150.306L178.765 150.234C179.182 150.115 179.39 149.823 179.39 149.359V143.767C179.39 143.505 179.348 143.315 179.265 143.196C179.182 143.064 179.021 142.975 178.783 142.928L178.515 142.856V142.677L181.569 141.641L181.748 141.82L181.891 142.892C182.308 142.523 182.778 142.219 183.302 141.981C183.826 141.743 184.344 141.623 184.857 141.623C185.643 141.623 186.244 141.838 186.661 142.267C187.09 142.695 187.304 143.35 187.304 144.232V149.377C187.304 149.841 187.53 150.133 187.983 150.252L188.144 150.306V150.484H183.928V150.306L184.16 150.234C184.577 150.103 184.785 149.811 184.785 149.359V143.66C184.785 142.898 184.404 142.517 183.642 142.517C183.118 142.517 182.546 142.779 181.927 143.303V149.377C181.927 149.841 182.135 150.133 182.552 150.252L182.713 150.306V150.484H178.515ZM192.809 150.752C192.106 150.752 191.475 150.597 190.915 150.288C190.355 149.966 189.909 149.478 189.575 148.823C189.253 148.156 189.093 147.304 189.093 146.268C189.093 145.22 189.277 144.357 189.647 143.678C190.016 142.987 190.504 142.475 191.111 142.141C191.719 141.796 192.38 141.623 193.094 141.623C193.511 141.623 193.91 141.665 194.291 141.748C194.672 141.832 195.012 141.957 195.31 142.124V139.801C195.31 139.551 195.268 139.367 195.185 139.247C195.113 139.128 194.952 139.045 194.702 138.997L194.363 138.926V138.747L197.614 137.961L197.811 138.122L197.739 140.623V149.359C197.739 149.597 197.781 149.793 197.864 149.948C197.948 150.091 198.102 150.192 198.329 150.252L198.489 150.306V150.484L195.435 150.681L195.274 150.038C194.952 150.252 194.583 150.425 194.166 150.556C193.761 150.687 193.309 150.752 192.809 150.752ZM193.845 150.091C194.345 150.091 194.803 149.942 195.22 149.645V142.552C194.78 142.267 194.327 142.124 193.863 142.124C193.291 142.124 192.803 142.457 192.398 143.124C191.993 143.779 191.79 144.815 191.79 146.232C191.79 147.65 191.981 148.65 192.362 149.234C192.743 149.805 193.237 150.091 193.845 150.091Z" fill="#22282C"/>
</svg>
