<svg width="77" height="27" viewBox="0 0 77 27" fill="none" xmlns="http://www.w3.org/2000/svg">
<rect width="77" height="27" fill="white"/>
<path d="M11.8388 20.3675C11.0901 20.3675 10.3279 20.2722 9.55208 20.0817C8.77625 19.9047 8.12972 19.6665 7.6125 19.3671L7.71458 16.5904H7.91875L8.55167 17.9175C8.74222 18.2986 8.94639 18.6389 9.16417 18.9383C9.38194 19.2242 9.68139 19.4487 10.0625 19.6121C10.3347 19.7482 10.5933 19.8435 10.8383 19.8979C11.0969 19.9387 11.3828 19.9592 11.6958 19.9592C12.5261 19.9592 13.1794 19.7346 13.6558 19.2854C14.1458 18.8362 14.3908 18.2578 14.3908 17.55C14.3908 16.8831 14.2275 16.3658 13.9008 15.9983C13.5742 15.6172 13.0501 15.2497 12.3288 14.8958L11.4917 14.5283C10.3211 14.0111 9.40236 13.419 8.73542 12.7521C8.08208 12.0715 7.75542 11.1732 7.75542 10.0571C7.75542 9.25403 7.95958 8.55986 8.36792 7.97458C8.78986 7.3893 9.36833 6.94014 10.1033 6.62708C10.8519 6.31403 11.7231 6.1575 12.7167 6.1575C13.4381 6.1575 14.1186 6.25278 14.7583 6.44333C15.4117 6.63389 15.9765 6.8925 16.4529 7.21916L16.3304 9.66917H16.1263L15.2892 8.13792C15.0578 7.66153 14.8264 7.32805 14.595 7.1375C14.3636 6.93333 14.0982 6.79042 13.7988 6.70875C13.6218 6.6543 13.4585 6.62028 13.3088 6.60667C13.159 6.57944 12.9685 6.56583 12.7371 6.56583C12.0429 6.56583 11.4576 6.77 10.9813 7.17833C10.5049 7.57305 10.2667 8.11069 10.2667 8.79125C10.2667 9.48542 10.4504 10.0435 10.8179 10.4654C11.1854 10.8737 11.7231 11.2412 12.4308 11.5679L13.37 11.9762C14.6767 12.5479 15.6158 13.1604 16.1875 13.8137C16.7592 14.4535 17.045 15.2837 17.045 16.3046C17.045 17.5024 16.589 18.4824 15.6771 19.2446C14.7788 19.9932 13.4993 20.3675 11.8388 20.3675ZM17.8559 24.6958V24.4917L18.1009 24.41C18.6045 24.2739 18.8563 23.9472 18.8563 23.43V12.3233C18.8563 12.0239 18.8019 11.7993 18.693 11.6496C18.5977 11.4999 18.414 11.3978 18.1418 11.3433L17.8559 11.2821V11.0779L21.3268 9.89375L21.5309 10.0979L21.7147 10.7308C22.1638 10.4586 22.6606 10.2476 23.2051 10.0979C23.7631 9.94819 24.3348 9.87333 24.9201 9.87333C26.0906 9.87333 27.0162 10.3225 27.6968 11.2208C28.3909 12.1056 28.738 13.3782 28.738 15.0387C28.738 16.6721 28.3569 17.9583 27.5947 18.8975C26.8461 19.8367 25.7844 20.3063 24.4097 20.3063C23.3344 20.3063 22.4293 20.1497 21.6943 19.8367V23.3688C21.6943 23.9132 21.9393 24.2535 22.4293 24.3896L22.8172 24.4917V24.6958H17.8559ZM23.4297 19.7142C24.1102 19.7142 24.6479 19.3603 25.0426 18.6525C25.4509 17.9447 25.6551 16.7674 25.6551 15.1204C25.6551 13.4735 25.4645 12.3233 25.0834 11.67C24.7023 11.0031 24.1511 10.6696 23.4297 10.6696C22.9261 10.6696 22.368 10.8329 21.7555 11.1596V19.3875C22.2727 19.6053 22.8308 19.7142 23.4297 19.7142ZM34.9444 20.3063C33.9099 20.3063 33.0116 20.0953 32.2494 19.6733C31.4871 19.2378 30.8951 18.6253 30.4731 17.8358C30.0648 17.0464 29.8606 16.1208 29.8606 15.0592C29.8606 13.9975 30.0784 13.0787 30.5139 12.3029C30.9631 11.5271 31.5688 10.9282 32.331 10.5062C33.1069 10.0843 33.978 9.87333 34.9444 9.87333C35.9107 9.87333 36.7751 10.0843 37.5373 10.5062C38.2995 10.9146 38.8984 11.5067 39.3339 12.2825C39.7831 13.0583 40.0077 13.9839 40.0077 15.0592C40.0077 16.1344 39.7967 17.0668 39.3748 17.8562C38.9664 18.6321 38.3812 19.2378 37.6189 19.6733C36.8703 20.0953 35.9788 20.3063 34.9444 20.3063ZM34.9444 19.8979C35.4207 19.8979 35.8019 19.7618 36.0877 19.4896C36.3735 19.2174 36.5777 18.7342 36.7002 18.04C36.8363 17.3458 36.9044 16.3658 36.9044 15.1C36.9044 13.8206 36.8363 12.8337 36.7002 12.1396C36.5777 11.4454 36.3735 10.9622 36.0877 10.69C35.8019 10.4178 35.4207 10.2817 34.9444 10.2817C34.468 10.2817 34.0801 10.4178 33.7806 10.69C33.4948 10.9622 33.2838 11.4454 33.1477 12.1396C33.0252 12.8337 32.9639 13.8206 32.9639 15.1C32.9639 16.3658 33.0252 17.3458 33.1477 18.04C33.2838 18.7342 33.4948 19.2174 33.7806 19.4896C34.0801 19.7618 34.468 19.8979 34.9444 19.8979ZM40.9044 20V19.7958L41.2107 19.7142C41.4829 19.6325 41.6666 19.51 41.7619 19.3467C41.8708 19.1833 41.9253 18.9724 41.9253 18.7137V12.3233C41.9253 12.0239 41.8708 11.8061 41.7619 11.67C41.6666 11.5203 41.4829 11.4182 41.2107 11.3637L40.9044 11.2821V11.0779L44.4161 9.89375L44.6203 10.0979L44.804 11.8537V12.0171C44.9946 11.636 45.2396 11.2889 45.539 10.9758C45.8521 10.6492 46.1923 10.3837 46.5598 10.1796C46.941 9.97542 47.3153 9.87333 47.6828 9.87333C48.2 9.87333 48.5947 10.0162 48.8669 10.3021C49.1392 10.5879 49.2753 10.9486 49.2753 11.3842C49.2753 11.8469 49.1392 12.2076 48.8669 12.4662C48.6083 12.7112 48.2953 12.8337 47.9278 12.8337C47.3561 12.8337 46.8525 12.5479 46.4169 11.9762L46.3761 11.9354C46.24 11.7449 46.0835 11.6428 45.9065 11.6292C45.7296 11.6019 45.5662 11.6836 45.4165 11.8742C45.2804 11.9967 45.1647 12.1464 45.0694 12.3233C44.9878 12.4867 44.9061 12.6772 44.8244 12.895V18.5912C44.8244 19.1357 45.0626 19.476 45.539 19.6121L46.1923 19.7958V20H40.9044ZM53.9751 20.3063C53.104 20.3063 52.4234 20.0885 51.9334 19.6529C51.457 19.2174 51.2188 18.5232 51.2188 17.5704V10.5879H49.8101V10.3837L50.3001 10.3021C50.722 10.2068 51.0827 10.0707 51.3822 9.89375C51.6952 9.7168 52.0015 9.47861 52.3009 9.17917L53.9751 7.32125H54.1793L54.118 10.1796H56.4047V10.5879H54.0976V17.9379C54.0976 18.4143 54.1997 18.775 54.4038 19.02C54.6216 19.265 54.8938 19.3875 55.2205 19.3875C55.5063 19.3875 55.7581 19.3194 55.9759 19.1833C56.1937 19.0336 56.4115 18.8362 56.6293 18.5912L56.8334 18.7954C56.5612 19.2582 56.1869 19.6257 55.7105 19.8979C55.2341 20.1701 54.6556 20.3063 53.9751 20.3063ZM57.2689 20V19.7958L57.616 19.6937C57.9018 19.5985 58.1264 19.476 58.2897 19.3262C58.453 19.1629 58.6164 18.9587 58.7797 18.7137L61.9239 13.8546L58.351 7.77042C58.2148 7.53903 58.0991 7.36208 58.0039 7.23958C57.9086 7.10347 57.7316 6.98097 57.473 6.87208L57.1464 6.72917V6.525H62.618V6.72917L62.1485 6.87208C61.8626 6.96736 61.7061 7.11708 61.6789 7.32125C61.6516 7.52542 61.7197 7.77042 61.883 8.05625L63.986 11.6292L66.2318 8.07666C66.4087 7.79083 66.5108 7.53222 66.538 7.30083C66.5789 7.06944 66.4428 6.91291 66.1297 6.83125L65.7214 6.72917V6.525H68.5593V6.72917L68.0285 6.8925C67.7698 6.96055 67.5657 7.07625 67.416 7.23958C67.2798 7.3893 67.1369 7.57986 66.9872 7.81125L64.2514 12.0783L68.1305 18.7137C68.2803 18.9587 68.4232 19.1493 68.5593 19.2854C68.6954 19.4079 68.886 19.5236 69.131 19.6325L69.5189 19.7958V20H63.8022V19.7958L64.2718 19.6733C64.5985 19.5917 64.7822 19.4419 64.823 19.2242C64.8639 19.0064 64.7958 18.7546 64.6189 18.4687L62.1893 14.3242L59.5147 18.5504C59.3378 18.8226 59.2629 19.0676 59.2901 19.2854C59.331 19.5032 59.4807 19.6461 59.7393 19.7142L60.0251 19.7958V20H57.2689Z" fill="#22282C"/>
</svg>
